<svg width="900" height="900" viewBox="0 0 900 900" fill="none" xmlns="http://www.w3.org/2000/svg">
<g id="Frame 12">
<rect width="900" height="900" fill="black"/>
<g id="Group 17">
<path id="Arrow 6" d="M592.142 464.142C599.953 456.332 599.953 443.668 592.142 435.858L464.863 308.579C457.052 300.768 444.389 300.768 436.579 308.579C428.768 316.389 428.768 329.052 436.579 336.863L549.716 450L436.579 563.137C428.768 570.948 428.768 583.611 436.579 591.421C444.389 599.232 457.052 599.232 464.863 591.421L592.142 464.142ZM557 470H578V430H557V470Z" fill="white"/>
<path id="Arrow 5" d="M466.142 465.142C473.953 457.332 473.953 444.668 466.142 436.858L338.863 309.579C331.052 301.768 318.389 301.768 310.579 309.579C302.768 317.389 302.768 330.052 310.579 337.863L423.716 451L310.579 564.137C302.768 571.948 302.768 584.611 310.579 592.421C318.389 600.232 331.052 600.232 338.863 592.421L466.142 465.142ZM432 471H452V431H432V471Z" fill="white"/>
<path id="Arrow 4" d="M338.142 464.142C345.953 456.332 345.953 443.668 338.142 435.858L210.863 308.579C203.052 300.768 190.389 300.768 182.579 308.579C174.768 316.389 174.768 329.052 182.579 336.863L295.716 450L182.579 563.137C174.768 570.948 174.768 583.611 182.579 591.421C190.389 599.232 203.052 599.232 210.863 591.421L338.142 464.142ZM303 470H324V430H303V470Z" fill="white"/>
</g>
</g>
</svg>
