<svg width="145" height="141" viewBox="0 0 145 141" fill="none" xmlns="http://www.w3.org/2000/svg">
<path d="M0 127.88C0 122.419 0 119.689 0.25364 117.391C2.41165 97.8441 17.8441 82.4117 37.3912 80.2536C39.6886 80 42.4191 80 47.88 80H97.12C102.581 80 105.311 80 107.609 80.2536C127.156 82.4117 142.588 97.8441 144.746 117.391C145 119.689 145 122.419 145 127.88V129.6C145 130.9 145 131.55 144.94 132.097C144.426 136.751 140.751 140.426 136.097 140.94C135.55 141 134.9 141 133.6 141H11.4C10.0998 141 9.44967 141 8.90266 140.94C4.2486 140.426 0.574203 136.751 0.0603904 132.097C0 131.55 0 130.9 0 129.6V127.88Z" fill="white"/>
<ellipse cx="72.5" cy="36" rx="37.5" ry="36" fill="white"/>
</svg>
