<svg width="310" height="414" viewBox="0 0 310 414" fill="none" xmlns="http://www.w3.org/2000/svg">
<path d="M176 21C176 9.40202 166.598 0 155 0C143.402 0 134 9.40202 134 21L176 21ZM140.151 343.851C148.352 352.052 161.648 352.052 169.849 343.851L303.492 210.208C311.693 202.007 311.693 188.711 303.492 180.51C295.291 172.309 281.995 172.309 273.794 180.51L155 299.303L36.2061 180.51C28.0051 172.309 14.7086 172.309 6.50758 180.51C-1.69343 188.711 -1.69343 202.007 6.50758 210.208L140.151 343.851ZM134 21L134 329.002H176L176 21L134 21Z" fill="white"/>
<path d="M65.9102 394.001H244.09" stroke="white" stroke-width="39" stroke-linecap="round"/>
</svg>
