<svg width="1262" height="670" viewBox="0 0 1262 670" fill="none" xmlns="http://www.w3.org/2000/svg">
<path d="M53.124 358.16V417.44C53.124 420.176 51.3 422 48.564 422H23.028C20.292 422 18.468 420.176 18.468 417.44V266.96C18.468 264.224 20.292 262.4 23.028 262.4H117.192C119.928 262.4 121.752 264.224 121.752 266.96V289.76C121.752 292.496 119.928 294.32 117.192 294.32H53.124V326.24H106.932C109.668 326.24 111.492 328.064 111.492 330.8V353.6C111.492 356.336 109.668 358.16 106.932 358.16H53.124ZM244.313 357.476V266.96C244.313 264.224 246.137 262.4 248.873 262.4H274.409C277.145 262.4 278.969 264.224 278.969 266.96V360.896C278.969 399.428 248.417 424.052 212.621 424.052C176.825 424.052 146.273 399.428 146.273 360.896V266.96C146.273 264.224 148.097 262.4 150.833 262.4H176.369C179.105 262.4 180.929 264.224 180.929 266.96V357.476C180.929 375.944 191.645 391.676 212.621 391.676C233.597 391.676 244.313 375.944 244.313 357.476ZM350.593 390.08H408.277C411.013 390.08 412.837 391.904 412.837 394.64V417.44C412.837 420.176 411.013 422 408.277 422H320.497C317.761 422 315.937 420.176 315.937 417.44V266.96C315.937 264.224 317.761 262.4 320.497 262.4H346.033C348.769 262.4 350.593 264.224 350.593 266.96V390.08ZM470.159 390.08H527.843C530.579 390.08 532.403 391.904 532.403 394.64V417.44C532.403 420.176 530.579 422 527.843 422H440.063C437.327 422 435.503 420.176 435.503 417.44V266.96C435.503 264.224 437.327 262.4 440.063 262.4H465.599C468.335 262.4 470.159 264.224 470.159 266.96V390.08ZM604.774 424.052C587.446 424.052 568.522 418.352 549.142 401.936C547.09 400.112 547.09 397.604 548.686 395.552L562.138 378.908C564.19 376.4 566.926 376.4 569.206 378.68C580.15 388.256 594.514 393.044 605.002 393.044C617.542 393.044 628.714 387.116 628.714 376.4C628.714 353.144 556.438 355.652 556.438 306.176C556.438 275.852 580.834 260.348 607.51 260.348C625.75 260.348 639.43 263.312 658.126 276.308C660.406 277.676 660.634 280.184 659.266 282.464L646.726 300.02C645.13 302.3 642.394 302.756 640.114 301.16C631.678 295.688 619.138 290.444 608.194 290.444C597.25 290.444 589.498 296.144 589.27 305.948C589.042 328.064 662.914 327.608 662.914 376.172C662.914 405.128 634.87 424.052 604.774 424.052ZM750.61 294.32V417.44C750.61 420.176 748.786 422 746.05 422H720.514C717.778 422 715.954 420.176 715.954 417.44V294.32H681.754C679.018 294.32 677.194 292.496 677.194 289.76V266.96C677.194 264.224 679.018 262.4 681.754 262.4H784.81C787.546 262.4 789.37 264.224 789.37 266.96V289.76C789.37 292.496 787.546 294.32 784.81 294.32H750.61ZM903.902 422C901.85 422 900.254 420.86 899.57 419.036L886.574 385.52H829.802L817.034 419.036C816.35 420.86 814.526 422 812.702 422H785.342C781.238 422 779.414 419.492 781.01 415.844L841.658 265.364C842.342 263.54 843.938 262.4 845.99 262.4H870.614C872.666 262.4 874.262 263.54 874.946 265.364L935.594 415.844C937.19 419.492 935.366 422 931.262 422H903.902ZM858.302 311.192L841.886 353.6H874.49L858.302 311.192ZM1026.82 391.676C1041.41 391.676 1056.01 384.608 1065.35 373.664C1067.41 371.384 1070.14 371.156 1072.42 373.208L1089.98 388.484C1091.8 390.308 1092.03 392.816 1090.43 394.868C1074.7 412.88 1052.59 424.052 1026.82 424.052C981.679 424.052 944.971 388.028 944.971 342.2C944.971 296.372 981.679 260.348 1026.82 260.348C1052.59 260.348 1074.7 271.52 1090.43 289.532C1092.03 291.584 1091.8 294.092 1089.98 295.916L1072.42 311.192C1070.14 313.244 1067.41 313.016 1065.35 310.736C1056.01 299.792 1041.41 292.724 1026.82 292.724C1000.15 292.724 979.627 313.244 979.627 342.2C979.627 371.156 1000.15 391.676 1026.82 391.676ZM1148.71 262.4C1151.44 262.4 1153.27 264.224 1153.27 266.96V326.012L1205.25 263.996C1206.16 263.084 1207.53 262.4 1208.67 262.4H1243.1C1249.48 262.4 1250.62 265.364 1246.52 270.152L1179.26 342.2L1246.52 414.248C1250.62 419.036 1249.48 422 1243.1 422H1208.67C1207.53 422 1206.16 421.316 1205.25 420.404L1153.27 358.844V417.44C1153.27 420.176 1151.44 422 1148.71 422H1123.17C1120.44 422 1118.61 420.176 1118.61 417.44V266.96C1118.61 264.224 1120.44 262.4 1123.17 262.4H1148.71Z" fill="black"/>
<path d="M156 249.699C251 58.1993 343.236 162.212 325.5 310.699C304 490.699 184 566.199 173 453.199C146.441 180.365 488 -96.3006 527.5 205.199C567 506.699 354.5 780.199 367 618.2C405.202 123.098 818 -204.801 846.5 155.699C875 516.199 638.308 867.26 766.5 366.699C829.5 120.699 965.667 153.033 1015.5 178.199" stroke="black" stroke-width="6" stroke-linecap="round"/>
</svg>
