<svg width="1231" height="670" viewBox="0 0 1231 670" fill="none" xmlns="http://www.w3.org/2000/svg">
<path d="M332.593 390.08H390.277C393.013 390.08 394.837 391.904 394.837 394.64V417.44C394.837 420.176 393.013 422 390.277 422H302.497C299.761 422 297.937 420.176 297.937 417.44V266.96C297.937 264.224 299.761 262.4 302.497 262.4H328.033C330.769 262.4 332.593 264.224 332.593 266.96V390.08Z" fill="black"/>
<path d="M1130.71 262.4C1133.44 262.4 1135.27 264.224 1135.27 266.96V326.012L1187.25 263.996C1188.16 263.084 1189.53 262.4 1190.67 262.4H1225.1C1231.48 262.4 1232.62 265.364 1228.52 270.152L1161.26 342.2L1228.52 414.248C1232.62 419.036 1231.48 422 1225.1 422H1190.67C1189.53 422 1188.16 421.316 1187.25 420.404L1135.27 358.844V417.44C1135.27 420.176 1133.44 422 1130.71 422H1105.17C1102.44 422 1100.61 420.176 1100.61 417.44V266.96C1100.61 264.224 1102.44 262.4 1105.17 262.4H1130.71Z" fill="black"/>
<path d="M1008.82 391.676C1023.42 391.676 1038.01 384.608 1047.35 373.664C1049.41 371.384 1052.14 371.156 1054.42 373.208L1071.98 388.484C1073.8 390.308 1074.03 392.816 1072.43 394.868C1056.7 412.88 1034.59 424.052 1008.82 424.052C963.679 424.052 926.971 388.028 926.971 342.2C926.971 296.372 963.679 260.348 1008.82 260.348C1034.59 260.348 1056.7 271.52 1072.43 289.532C1074.03 291.584 1073.8 294.092 1071.98 295.916L1054.42 311.192C1052.14 313.244 1049.41 313.016 1047.35 310.736C1038.01 299.792 1023.42 292.724 1008.82 292.724C982.147 292.724 961.627 313.244 961.627 342.2C961.627 371.156 982.147 391.676 1008.82 391.676Z" fill="black"/>
<path d="M885.902 422C883.85 422 882.254 420.86 881.57 419.036L868.574 385.52H811.802L799.034 419.036C798.35 420.86 796.526 422 794.702 422H767.342C763.238 422 761.414 419.492 763.01 415.844L823.658 265.364C824.342 263.54 825.938 262.4 827.99 262.4H852.614C854.666 262.4 856.262 263.54 856.946 265.364L917.594 415.844C919.19 419.492 917.366 422 913.262 422H885.902ZM840.302 311.192L823.886 353.6H856.49L840.302 311.192Z" fill="black"/>
<path d="M586.774 424.052C569.445 424.052 550.521 418.352 531.141 401.936C529.089 400.112 529.089 397.604 530.685 395.552L544.138 378.908C546.19 376.4 548.926 376.4 551.206 378.68C562.15 388.256 576.514 393.044 587.002 393.044C599.542 393.044 610.714 387.116 610.714 376.4C610.714 353.144 538.438 355.652 538.438 306.176C538.438 275.852 562.834 260.348 589.51 260.348C607.75 260.348 621.429 263.312 640.125 276.308C642.405 277.676 642.634 280.184 641.266 282.464L628.726 300.02C627.13 302.3 624.394 302.756 622.114 301.16C613.678 295.688 601.137 290.444 590.193 290.444C579.249 290.444 571.498 296.144 571.27 305.948C571.042 328.064 644.914 327.608 644.914 376.172C644.914 405.128 616.87 424.052 586.774 424.052Z" fill="black"/>
<path d="M452.159 390.08H509.843C512.579 390.08 514.403 391.904 514.403 394.64V417.44C514.403 420.176 512.579 422 509.843 422H422.063C419.327 422 417.503 420.176 417.503 417.44V266.96C417.503 264.224 419.327 262.4 422.063 262.4H447.599C450.335 262.4 452.159 264.224 452.159 266.96V390.08Z" fill="black"/>
<path d="M35.124 358.16V417.44C35.124 420.176 33.3 422 30.564 422H5.02799C2.29199 422 0.467987 420.176 0.467987 417.44V266.96C0.467987 264.224 2.29199 262.4 5.02799 262.4H99.192C101.928 262.4 103.752 264.224 103.752 266.96V289.76C103.752 292.496 101.928 294.32 99.192 294.32H35.124V326.24H88.932C91.668 326.24 93.492 328.064 93.492 330.8V353.6C93.492 356.336 91.668 358.16 88.932 358.16H35.124Z" fill="black"/>
<path d="M138 249.699C233 58.1993 325.236 162.212 307.5 310.699C286 490.699 166 566.199 155 453.199C128.441 180.365 470 -96.3006 509.5 205.199C549 506.699 336.5 780.199 349 618.2C387.202 123.098 800 -204.801 828.5 155.699C857 516.199 620.308 867.26 748.5 366.699C811.5 120.699 947.667 153.033 997.5 178.199" stroke="#D30000" stroke-width="6" stroke-linecap="round"/>
<path d="M226.313 357.476V266.96C226.313 264.224 228.137 262.4 230.873 262.4H256.409C259.145 262.4 260.969 264.224 260.969 266.96V360.896C260.969 399.428 230.417 424.052 194.621 424.052C158.825 424.052 128.273 399.428 128.273 360.896V266.96C128.273 264.224 130.097 262.4 132.833 262.4H158.369C161.105 262.4 162.929 264.224 162.929 266.96V357.476C162.929 375.944 173.645 391.676 194.621 391.676C215.597 391.676 226.313 375.944 226.313 357.476Z" fill="black"/>
<path d="M732.61 294.32V417.44C732.61 420.176 730.786 422 728.05 422H702.514C699.778 422 697.954 420.176 697.954 417.44V294.32H663.754C661.018 294.32 659.194 292.496 659.194 289.76V266.96C659.194 264.224 661.018 262.4 663.754 262.4H766.81C769.546 262.4 771.37 264.224 771.37 266.96V289.76C771.37 292.496 769.546 294.32 766.81 294.32H732.61Z" fill="black"/>
<path d="M370 422V390H391.5C394 390 395 391.592 395 394V418C395 421.6 391.667 422.167 390 422H370Z" fill="black"/>
<path d="M452 343H417.5V267L422 262.5H447.5C449.5 262.5 452 263 452 267V343Z" fill="black"/>
</svg>
