<svg width="154" height="157" viewBox="0 0 154 157" fill="none" xmlns="http://www.w3.org/2000/svg">
<path fill-rule="evenodd" clip-rule="evenodd" d="M76.3402 149.72C117.131 149.72 150.198 116.652 150.198 75.862C150.198 35.0716 117.131 2.00439 76.3402 2.00439C35.5498 2.00439 2.4826 35.0716 2.4826 75.862C2.4826 116.652 35.5498 149.72 76.3402 149.72ZM76.3402 151.72C118.235 151.72 152.198 117.757 152.198 75.862C152.198 33.967 118.235 0.00439453 76.3402 0.00439453C34.4452 0.00439453 0.482605 33.967 0.482605 75.862C0.482605 117.757 34.4452 151.72 76.3402 151.72Z" fill="#FF0000"/>
<path fill-rule="evenodd" clip-rule="evenodd" d="M77.8424 154.226C118.633 154.226 151.7 121.159 151.7 80.3684C151.7 39.5779 118.633 6.51074 77.8424 6.51074C37.0519 6.51074 3.98474 39.5779 3.98474 80.3684C3.98474 121.159 37.0519 154.226 77.8424 154.226ZM77.8424 156.226C119.737 156.226 153.7 122.263 153.7 80.3684C153.7 38.4734 119.737 4.51074 77.8424 4.51074C35.9474 4.51074 1.98474 38.4734 1.98474 80.3684C1.98474 122.263 35.9474 156.226 77.8424 156.226Z" fill="black"/>
<path fill-rule="evenodd" clip-rule="evenodd" d="M112.799 36.4833H43.7005C37.3007 36.4833 32.1126 41.653 32.1126 48.0302V112.18C32.1126 118.557 37.3007 123.726 43.7005 123.726H112.799C119.199 123.726 124.387 118.557 124.387 112.18V48.0302C124.387 41.653 119.199 36.4833 112.799 36.4833ZM43.7005 36.0557C37.0637 36.0557 31.6834 41.4168 31.6834 48.0302V112.18C31.6834 118.793 37.0637 124.154 43.7005 124.154H112.799C119.436 124.154 124.816 118.793 124.816 112.18V48.0302C124.816 41.4168 119.436 36.0557 112.799 36.0557H43.7005Z" fill="black"/>
<path d="M114.005 82.6307L111.199 81.4376C111.055 81.3842 110.972 81.2595 110.972 81.1349V79.2294C110.972 78.8732 111.22 78.7486 111.591 78.9267L117.059 81.5979C117.182 81.6691 117.265 81.7938 117.265 81.9184V83.3253C117.265 83.4499 117.182 83.5746 117.059 83.6458L111.591 86.317C111.22 86.4951 110.972 86.3704 110.972 86.0143V84.1266C110.972 83.9842 111.075 83.8595 111.199 83.8061L114.005 82.6307Z" fill="black"/>
<path d="M104.054 83.6284H109.299C109.548 83.6284 109.713 83.7867 109.713 84.024V86.0017C109.713 86.239 109.548 86.3973 109.299 86.3973H101.318C101.069 86.3973 100.904 86.239 100.904 86.0017V72.9488C100.904 72.7114 101.069 72.5532 101.318 72.5532H103.64C103.889 72.5532 104.054 72.7114 104.054 72.9488V83.6284Z" fill="black"/>
<path d="M90.8354 81.0772L95.1708 72.7708C95.2522 72.6323 95.3947 72.5532 95.5372 72.5532H97.9796C98.2239 72.5532 98.3867 72.7114 98.3867 72.9488V86.0017C98.3867 86.239 98.2239 86.3973 97.9796 86.3973H95.7C95.4557 86.3973 95.2929 86.239 95.2929 86.0017V78.9215L92.1584 84.9733C92.077 85.1117 91.9345 85.1908 91.792 85.1908H89.8788C89.7363 85.1908 89.5938 85.1117 89.5124 84.9733L86.3779 78.9215V86.0017C86.3779 86.239 86.2151 86.3973 85.9708 86.3973H83.6912C83.4469 86.3973 83.2841 86.239 83.2841 86.0017V72.9488C83.2841 72.7114 83.4469 72.5532 83.6912 72.5532H86.1337C86.2761 72.5532 86.4186 72.6323 86.5 72.7708L90.8354 81.0772Z" fill="black"/>
<path d="M78.5464 75.322V86.0017C78.5464 86.239 78.3827 86.3973 78.1371 86.3973H75.8451C75.5995 86.3973 75.4358 86.239 75.4358 86.0017V75.322H72.3662C72.1206 75.322 71.9569 75.1638 71.9569 74.9265V72.9488C71.9569 72.7114 72.1206 72.5532 72.3662 72.5532H81.616C81.8616 72.5532 82.0253 72.7114 82.0253 72.9488V74.9265C82.0253 75.1638 81.8616 75.322 81.616 75.322H78.5464Z" fill="black"/>
<path d="M70.2957 72.5532C70.5373 72.5532 70.6984 72.7114 70.6984 72.9488V86.0017C70.6984 86.239 70.5373 86.3973 70.2957 86.3973H68.0403C67.7987 86.3973 67.6376 86.239 67.6376 86.0017V80.7014H61.1737V86.0017C61.1737 86.239 61.0126 86.3973 60.771 86.3973H58.5157C58.274 86.3973 58.1129 86.239 58.1129 86.0017V72.9488C58.1129 72.7114 58.274 72.5532 58.5157 72.5532H60.771C61.0126 72.5532 61.1737 72.7114 61.1737 72.9488V77.9326H67.6376V72.9488C67.6376 72.7114 67.7987 72.5532 68.0403 72.5532H70.2957Z" fill="black"/>
<path d="M56.4584 72.5532C56.7794 72.5532 56.9304 72.7708 56.8171 73.0872L52.0216 86.1402C51.9649 86.2984 51.8328 86.3973 51.6629 86.3973H49.6993C49.3784 86.3973 49.2273 86.1797 49.3406 85.8633L54.1173 72.8103C54.1739 72.6521 54.325 72.5532 54.476 72.5532H56.4584Z" fill="black"/>
<path d="M48.0445 81.1349C48.0445 81.2595 47.962 81.3842 47.8176 81.4376L45.0116 82.6307L47.8176 83.8061C47.9414 83.8595 48.0445 83.9842 48.0445 84.1266V86.0143C48.0445 86.3704 47.7969 86.4951 47.4256 86.317L41.9581 83.6458C41.8343 83.5746 41.7518 83.4499 41.7518 83.3253V81.9184C41.7518 81.7938 41.8343 81.6691 41.9581 81.5979L47.4256 78.9267C47.7969 78.7486 48.0445 78.8732 48.0445 79.2294V81.1349Z" fill="black"/>
</svg>
