<svg width="154" height="157" viewBox="0 0 154 157" fill="none" xmlns="http://www.w3.org/2000/svg">
<path fill-rule="evenodd" clip-rule="evenodd" d="M76.5056 150.222C117.296 150.222 150.363 117.154 150.363 76.364C150.363 35.5735 117.296 2.50635 76.5056 2.50635C35.7151 2.50635 2.64795 35.5735 2.64795 76.364C2.64795 117.154 35.7151 150.222 76.5056 150.222ZM76.5056 152.222C118.401 152.222 152.363 118.259 152.363 76.364C152.363 34.469 118.401 0.506348 76.5056 0.506348C34.6106 0.506348 0.647949 34.469 0.647949 76.364C0.647949 118.259 34.6106 152.222 76.5056 152.222Z" fill="#FF0000"/>
<path fill-rule="evenodd" clip-rule="evenodd" d="M78.0078 154.728C118.798 154.728 151.865 121.661 151.865 80.8703C151.865 40.0799 118.798 7.0127 78.0078 7.0127C37.2173 7.0127 4.15015 40.0799 4.15015 80.8703C4.15015 121.661 37.2173 154.728 78.0078 154.728ZM78.0078 156.728C119.903 156.728 153.865 122.765 153.865 80.8703C153.865 38.9753 119.903 5.0127 78.0078 5.0127C36.1128 5.0127 2.15015 38.9753 2.15015 80.8703C2.15015 122.765 36.1128 156.728 78.0078 156.728Z" fill="black"/>
<path fill-rule="evenodd" clip-rule="evenodd" d="M113.435 35.4776H45.5082C39.2169 35.4776 34.1167 40.5777 34.1167 46.8691V110.155C34.1167 116.446 39.2169 121.547 45.5082 121.547H113.435C119.727 121.547 124.827 116.446 124.827 110.155V46.8691C124.827 40.5777 119.727 35.4776 113.435 35.4776ZM45.5082 35.0557C38.9839 35.0557 33.6948 40.3447 33.6948 46.8691V110.155C33.6948 116.679 38.9839 121.969 45.5082 121.969H113.435C119.96 121.969 125.249 116.679 125.249 110.155V46.8691C125.249 40.3447 119.96 35.0557 113.435 35.0557H45.5082Z" fill="black"/>
<path d="M100.076 111.485C95.9721 111.485 91.4898 110.135 86.8994 106.247C86.4134 105.814 86.4134 105.22 86.7914 104.734L89.9777 100.792C90.4637 100.198 91.1118 100.198 91.6518 100.738C94.244 103.006 97.6463 104.14 100.13 104.14C103.101 104.14 105.747 102.736 105.747 100.198C105.747 94.6896 88.6276 95.2837 88.6276 83.5648C88.6276 76.3822 94.406 72.71 100.724 72.71C105.045 72.71 108.285 73.412 112.713 76.4902C113.253 76.8143 113.307 77.4083 112.983 77.9484L110.013 82.1067C109.635 82.6467 108.987 82.7547 108.447 82.3767C106.449 81.0806 103.479 79.8385 100.887 79.8385C98.2943 79.8385 96.4582 81.1886 96.4042 83.5108C96.3502 88.7492 113.847 88.6412 113.847 100.144C113.847 107.003 107.205 111.485 100.076 111.485Z" fill="black"/>
<path d="M57.3005 101.332C57.1384 100.738 57.4085 100.252 58.0025 100.09L63.5109 98.4162C64.213 98.2542 64.753 98.5782 64.969 99.2803C65.6711 101.764 67.3992 103.547 69.6674 103.547C72.4756 103.547 74.6358 101.602 74.6358 98.7942V74.2764C74.6358 73.6283 75.0678 73.1963 75.7159 73.1963H81.7103C82.3584 73.1963 82.7904 73.6283 82.7904 74.2764V98.7942C82.7904 106.625 77.12 111.485 69.8294 111.485C63.5109 111.485 59.0286 107.651 57.3005 101.332Z" fill="black"/>
</svg>
