<svg width="154" height="157" viewBox="0 0 154 157" fill="none" xmlns="http://www.w3.org/2000/svg">
<path fill-rule="evenodd" clip-rule="evenodd" d="M76.1816 150.218C116.972 150.218 150.039 117.151 150.039 76.3601C150.039 35.5696 116.972 2.50244 76.1816 2.50244C35.3912 2.50244 2.32397 35.5696 2.32397 76.3601C2.32397 117.151 35.3912 150.218 76.1816 150.218ZM76.1816 152.218C118.077 152.218 152.039 118.255 152.039 76.3601C152.039 34.4651 118.077 0.502441 76.1816 0.502441C34.2866 0.502441 0.323975 34.4651 0.323975 76.3601C0.323975 118.255 34.2866 152.218 76.1816 152.218Z" fill="#FF0000"/>
<path fill-rule="evenodd" clip-rule="evenodd" d="M77.6838 154.724C118.474 154.724 151.541 121.656 151.541 80.8659C151.541 40.0755 118.474 7.0083 77.6838 7.0083C36.8934 7.0083 3.82617 40.0755 3.82617 80.8659C3.82617 121.656 36.8934 154.724 77.6838 154.724ZM77.6838 156.724C119.579 156.724 153.541 122.761 153.541 80.8659C153.541 38.9709 119.579 5.0083 77.6838 5.0083C35.7888 5.0083 1.82617 38.9709 1.82617 80.8659C1.82617 122.761 35.7888 156.724 77.6838 156.724Z" fill="black"/>
<path d="M106.611 71.4554V86.0108C106.611 86.184 106.611 86.3571 106.611 86.5303C106.615 86.7809 106.55 87.0278 106.422 87.2434C106.293 87.4589 106.107 87.6346 105.885 87.7507C105.21 88.1424 104.536 88.5352 103.86 88.9233C102.733 89.5714 101.605 90.2178 100.477 90.8626C99.0868 91.6587 97.6968 92.4548 96.3071 93.2509C96.1001 93.3703 95.8895 93.4826 95.6945 93.6187C95.0698 94.051 94.4524 94.0546 93.8158 93.6378C93.4568 93.399 93.0703 93.1972 92.6946 92.9823C90.9667 91.9895 89.2388 90.9972 87.5109 90.0052C86.2162 89.2601 84.9218 88.5134 83.6279 87.765C83.3859 87.6389 83.1851 87.4463 83.0494 87.2099C82.9137 86.9735 82.8487 86.7033 82.8621 86.4312C82.8621 85.2621 82.8621 84.0918 82.8621 82.9228V75.0032C82.8621 74.8515 82.8621 74.6999 82.8621 74.5494C82.8509 74.2877 82.9146 74.0282 83.0457 73.8013C83.1769 73.5743 83.3701 73.3894 83.6028 73.2681C83.9402 73.0734 84.2753 72.874 84.6139 72.6806C86.3067 71.7133 87.9999 70.7464 89.6935 69.78C90.7645 69.165 91.827 68.5369 92.8944 67.9159C93.2534 67.7081 93.6124 67.5063 93.9642 67.2997C94.5026 66.9869 95.0315 67.0036 95.564 67.32C96.2724 67.7404 96.9868 68.15 97.6988 68.5643C97.8388 68.6666 97.9992 68.7378 98.169 68.7733C98.4407 68.8055 98.6561 68.6766 98.6956 68.4151C98.7205 68.2003 98.7293 67.9839 98.7219 67.7678C98.7219 62.7644 98.7219 57.7609 98.7219 52.7574C98.7219 52.5413 98.7159 52.3239 98.7326 52.1078C98.7374 52.0161 98.7637 51.9268 98.8093 51.8471C98.8549 51.7674 98.9186 51.6994 98.9952 51.6487C99.0719 51.5979 99.1594 51.5658 99.2507 51.5549C99.3421 51.544 99.4347 51.5547 99.5212 51.5859C99.7048 51.6509 99.8815 51.7337 100.049 51.8331C101.147 52.4429 102.245 53.0555 103.342 53.6709C104.137 54.114 104.926 54.5677 105.735 54.9917C106.333 55.3081 106.625 55.7738 106.618 56.4533C106.605 57.7752 106.618 59.0959 106.618 60.4179L106.611 71.4554ZM98.674 80.5166C98.674 79.9314 98.6489 79.3451 98.6824 78.7624C98.7063 78.3492 98.5268 78.1151 98.187 77.942C97.9357 77.8154 97.6952 77.6685 97.4511 77.5288C96.6613 77.075 95.868 76.6272 95.0854 76.1627C94.8317 76.011 94.6068 75.9883 94.3674 76.1627C94.298 76.2128 94.2083 76.232 94.1281 76.2761C93.1337 76.8493 92.1429 77.4321 91.1366 77.9969C91.0106 78.057 90.9062 78.1543 90.8375 78.2756C90.7687 78.397 90.7391 78.5365 90.7525 78.6752C90.768 79.6711 90.7525 80.6682 90.7525 81.6605C90.7525 81.9424 90.7525 82.2242 90.7525 82.5048C90.7489 82.5918 90.7709 82.6779 90.8158 82.7526C90.8607 82.8273 90.9264 82.8873 91.005 82.9251C91.2898 83.0828 91.571 83.2464 91.8534 83.4028C92.6994 83.8805 93.5513 84.3581 94.3902 84.8573C94.4885 84.9225 94.6046 84.9561 94.7227 84.9536C94.8408 84.951 94.9553 84.9124 95.0507 84.8429C96.1348 84.2061 97.2245 83.5795 98.3198 82.9634C98.4271 82.9155 98.5179 82.8373 98.5808 82.7383C98.6438 82.6394 98.6762 82.5241 98.674 82.4069C98.674 81.7728 98.674 81.1447 98.674 80.5166Z" fill="black"/>
<path d="M48.7326 82.2221V89.8897C48.7326 90.0413 48.7231 90.1942 48.7326 90.3446C48.7709 90.9107 48.1631 91.288 47.6425 90.919C47.396 90.7447 47.1172 90.6169 46.854 90.4664C45.1249 89.4741 43.403 88.471 41.6655 87.4942C41.0911 87.1718 40.8279 86.7216 40.841 86.072C40.8554 85.2492 40.841 84.4264 40.841 83.6037C40.841 82.0871 40.8159 80.5694 40.8518 79.054C40.8709 78.2181 40.5503 77.6735 39.7916 77.3046C39.0521 76.9463 38.3557 76.5045 37.6473 76.0806C37.1256 75.7665 36.6302 75.788 36.1144 76.0925C35.3319 76.5558 34.5429 77.0084 33.7475 77.4502C33.1768 77.7667 32.9255 78.2276 32.9291 78.8832C32.9434 81.1784 32.9087 83.4759 32.9482 85.7711C32.9626 86.6499 32.6886 87.2231 31.8808 87.653C30.1218 88.5892 28.4107 89.6126 26.678 90.6002C26.4518 90.7292 26.2365 90.8808 26.0019 90.9907C25.5568 91.1996 25.1775 91.0002 25.077 90.513C25.0528 90.3634 25.0436 90.2118 25.0494 90.0604C25.0399 84.8396 25.0319 79.6192 25.0255 74.3992C25.0195 74.291 25.0195 74.1826 25.0255 74.0744C25.0817 73.5967 25.2648 73.2146 25.7088 72.965C26.5978 72.4683 27.4726 71.9464 28.3556 71.4365C29.4813 70.7869 30.6085 70.1389 31.7373 69.4924C33.2031 68.6565 34.6713 67.8206 36.1336 66.9692C36.6553 66.6671 37.1399 66.6766 37.664 66.9847C39.234 67.9054 40.8147 68.8058 42.3942 69.7098C44.0862 70.677 45.7802 71.6423 47.4762 72.6056C47.7155 72.7453 47.9632 72.891 48.1942 73.051C48.3604 73.1556 48.4972 73.3007 48.5919 73.4727C48.6865 73.6446 48.7357 73.8377 48.735 74.0338C48.735 74.2284 48.735 74.4231 48.735 74.6189V82.2221H48.7326Z" fill="black"/>
<path d="M111.887 80.3264V74.8011C111.887 74.6494 111.887 74.4978 111.887 74.3461C111.873 73.7705 112.126 73.3609 112.628 73.0743C114.869 71.8006 117.107 70.5193 119.341 69.2304C120.431 68.6035 121.515 67.967 122.603 67.3377C122.791 67.229 122.983 67.1311 123.176 67.0308C123.347 66.9347 123.54 66.8843 123.736 66.8843C123.933 66.8843 124.126 66.9347 124.297 67.0308C124.793 67.2975 125.286 67.5709 125.775 67.8511C127.577 68.8861 129.378 69.9274 131.178 70.975C132.374 71.6708 133.571 72.3702 134.767 73.0731C135.246 73.3562 135.531 73.7419 135.515 74.3389C135.49 75.2704 135.496 76.203 135.515 77.1344C135.525 77.6981 135.266 78.079 134.797 78.3489L131.082 80.4984C130.313 80.9434 129.545 81.3908 128.778 81.8406C128.041 82.274 127.572 82.0101 127.563 81.1432C127.554 80.3849 127.563 79.6266 127.563 78.8683C127.563 78.7167 127.563 78.565 127.555 78.4134C127.553 78.2945 127.519 78.1785 127.455 78.0777C127.392 77.977 127.303 77.8953 127.196 77.8414C126.178 77.2642 125.165 76.6779 124.158 76.0824C123.806 75.8746 123.495 75.8531 123.128 76.0752C122.144 76.6723 121.145 77.2347 120.142 77.7948C119.996 77.8662 119.874 77.9792 119.792 78.1197C119.71 78.2602 119.671 78.4218 119.681 78.5841C119.681 79.7544 119.69 80.9235 119.681 82.0937C119.674 82.2565 119.714 82.4178 119.797 82.5581C119.88 82.6984 120.002 82.8117 120.148 82.8843C120.507 83.092 120.866 83.2939 121.225 83.4969C122.92 84.4617 124.615 85.4262 126.31 86.3903C127.608 87.1306 128.904 87.875 130.199 88.6233C130.349 88.7105 130.493 88.8084 130.644 88.8944C131.042 89.1237 131.094 89.7124 130.618 90.0265C130.438 90.1459 130.241 90.2378 130.05 90.3417C128.607 91.1378 127.164 91.9315 125.721 92.7228C125.303 92.9533 124.883 93.173 124.474 93.425C123.94 93.7594 123.437 93.757 122.887 93.4393C121.012 92.3527 119.128 91.2899 117.244 90.2151C115.794 89.39 114.34 88.572 112.889 87.7492C112.757 87.674 112.633 87.5856 112.499 87.5104C112.095 87.2907 111.935 86.9288 111.9 86.4966C111.887 86.3234 111.893 86.1503 111.893 85.9759V80.3264H111.887Z" fill="black"/>
<path d="M54.5349 73.2939C54.8604 72.9679 55.2864 72.7971 55.6729 72.5678C56.8444 71.8728 58.0254 71.1946 59.2053 70.5151C60.2367 69.918 61.273 69.34 62.3045 68.7489C63.093 68.2987 63.8768 67.8414 64.6654 67.3888C64.8329 67.2921 65.01 67.2097 65.1787 67.113C65.3267 67.0228 65.4931 66.9669 65.6656 66.9493C65.8381 66.9318 66.0123 66.953 66.1755 67.0115C66.1724 67.2452 66.2609 67.471 66.422 67.6408C66.5253 67.7749 66.5752 67.9426 66.562 68.1113C66.5058 68.1463 66.4655 68.2018 66.4494 68.2659C66.4334 68.33 66.4428 68.3979 66.4758 68.4552C66.6158 68.7752 66.5225 69.0785 66.4758 69.4021C66.4292 69.7258 66.635 70.0267 66.5333 70.3575C66.5277 70.3784 66.5201 70.3988 66.5105 70.4184C66.41 70.6297 66.4555 70.8291 66.5189 71.0453C66.6876 71.6292 66.7893 72.2227 66.623 72.8305C66.6045 72.8921 66.6045 72.9577 66.623 73.0192C66.7427 73.3572 66.69 73.7058 66.6912 74.0486C66.696 76.4074 66.696 78.7658 66.6912 81.1239C66.6912 81.9419 66.7415 82.7646 66.4591 83.5576C66.3646 83.8239 66.5452 84.0603 66.5692 84.317C66.5955 84.6012 66.3586 84.852 66.4926 85.1386C66.5811 85.3273 66.5405 85.51 66.4926 85.7046C66.3909 86.082 66.4148 88.4094 66.5081 88.8022C66.5996 89.1373 66.5963 89.4911 66.4986 89.8244C66.416 90.0496 66.408 90.2953 66.4758 90.5254C66.586 90.8772 66.6001 91.2519 66.5165 91.6109C66.4903 91.6922 66.4825 91.7782 66.4938 91.8628C66.6398 92.3966 66.5345 92.9376 66.562 93.4761C66.5353 93.5148 66.4995 93.5464 66.4578 93.5683C66.4161 93.5901 66.3698 93.6015 66.3227 93.6015L66.1815 93.6827C66.141 93.7057 66.0963 93.7202 66.05 93.7256C66.0038 93.7309 65.9569 93.7269 65.9122 93.7138C65.9086 93.5429 65.8549 93.3769 65.7579 93.2361C65.1464 92.1411 64.5469 91.0389 63.945 89.9379C63.8421 89.748 63.75 89.551 63.6447 89.3623C63.0547 88.3043 62.4588 87.2511 61.8737 86.1906C61.5087 85.5303 61.1629 84.858 60.7967 84.1952C60.3404 83.3609 59.8794 82.529 59.4135 81.6995C59.1083 81.1537 58.7912 80.6152 58.4789 80.0742C58.0458 79.2538 57.6293 78.4239 57.1734 77.6155C56.6732 76.7306 56.1707 75.8493 55.7064 74.9442C55.4671 74.4665 55.1619 74.0115 54.8903 73.5458C54.8595 73.4756 54.8102 73.4151 54.7476 73.3707C54.685 73.3263 54.6115 73.2998 54.5349 73.2939Z" fill="black"/>
<path d="M91.7229 105.491V110.756C91.7229 110.951 91.7325 111.148 91.7133 111.341C91.6499 111.975 91.3878 112.511 90.8422 112.865C90.2774 113.229 89.6982 113.572 89.1167 113.909C87.3513 114.928 85.5855 115.945 83.8193 116.958C82.8429 117.521 81.8748 118.098 80.89 118.645C80.0524 119.112 79.198 119.122 78.3556 118.615C77.445 118.068 76.526 117.54 75.6142 116.991C75.4286 116.879 75.2521 116.753 75.0865 116.613C75.0698 116.599 75.057 116.581 75.0492 116.56C75.0414 116.54 75.0389 116.518 75.0419 116.496C75.0449 116.474 75.0532 116.454 75.0662 116.436C75.0793 116.418 75.0965 116.404 75.1164 116.395C75.2277 116.328 75.3446 116.272 75.4658 116.225C75.8248 116.083 76.1993 115.957 76.5236 115.73C76.6028 115.672 76.6986 115.642 76.7966 115.643C76.8947 115.645 76.9895 115.678 77.0669 115.738C77.6783 116.108 78.2982 116.466 78.9144 116.831C78.9886 116.875 79.0616 116.921 79.1322 116.973C79.2772 117.089 79.4568 117.154 79.6427 117.157C79.8286 117.16 80.0102 117.101 80.1589 116.99C80.4688 116.79 80.7955 116.618 81.1162 116.434C82.7659 115.479 84.4164 114.521 86.0677 113.561C87.1375 112.943 88.2132 112.335 89.2866 111.722C89.4063 111.658 89.5104 111.591 89.624 111.526C89.7222 111.479 89.8031 111.402 89.8558 111.307C89.9085 111.211 89.9304 111.102 89.9184 110.994C89.9088 110.864 89.9184 110.733 89.9184 110.603V100.268C89.9184 99.4785 89.9184 99.4857 89.2351 99.1036C88.1402 98.485 87.0501 97.8569 85.96 97.23C84.2497 96.2468 82.5405 95.262 80.8326 94.2756C80.6256 94.1562 80.4162 94.0368 80.2211 93.9054C79.8621 93.6523 79.5175 93.6511 79.1334 93.8792C77.7334 94.7067 76.3226 95.5223 74.913 96.3343C73.5967 97.0926 72.2804 97.8402 70.9642 98.5949C70.5502 98.8337 70.1445 99.0857 69.7257 99.3114C69.6166 99.3608 69.5257 99.4431 69.4661 99.5469C69.4064 99.6506 69.3808 99.7704 69.393 99.8893C69.399 99.998 69.393 100.107 69.393 100.214C69.393 103.68 69.393 107.147 69.393 110.615C69.393 111.397 69.3296 111.313 70.0416 111.727C70.7727 112.151 71.511 112.563 72.2469 112.978C72.5848 113.18 72.9734 113.281 73.367 113.27C73.6853 113.268 73.9914 113.148 74.2257 112.932C74.46 112.717 74.6056 112.423 74.6342 112.107C74.6505 111.891 74.6549 111.674 74.6473 111.457V101.318C74.6473 101.123 74.6473 100.927 74.6581 100.734C74.6689 100.54 74.7885 100.396 74.9812 100.388C75.3713 100.374 75.7626 100.374 76.1527 100.388C76.3489 100.396 76.4506 100.521 76.4686 100.735C76.4817 100.885 76.4769 101.038 76.4769 101.19C76.4769 104.721 76.4769 108.253 76.4769 111.784C76.4818 112.088 76.4698 112.391 76.441 112.693C76.4096 113.061 76.3014 113.419 76.1234 113.743C75.9454 114.067 75.7014 114.35 75.4072 114.575C75.1672 114.763 74.891 114.899 74.5959 114.975C73.5919 115.228 72.6131 115.171 71.6786 114.704C71.2131 114.472 70.7548 114.226 70.3025 113.968C69.7353 113.648 69.1765 113.316 68.6164 112.987C68.3217 112.821 68.0731 112.584 67.8932 112.298C67.7133 112.012 67.6078 111.685 67.5862 111.348C67.5658 111.133 67.5551 110.916 67.5551 110.7C67.5551 107.191 67.5551 103.681 67.5551 100.17C67.5551 100.018 67.5551 99.8666 67.5634 99.715C67.6113 98.8791 67.9631 98.233 68.7193 97.8043C69.8561 97.1702 70.975 96.5063 72.1022 95.8555L76.331 93.4218C77.025 93.0218 77.7178 92.6182 78.413 92.2181C79.1849 91.7727 79.9686 91.7118 80.7644 92.1572C81.0863 92.3363 81.4117 92.5095 81.7312 92.6934L87.8662 96.2436C88.8235 96.7977 89.7808 97.3434 90.7381 97.9082C91.3866 98.2927 91.6882 98.8946 91.7289 99.635C91.7372 99.7854 91.7289 99.9383 91.7289 100.09L91.7229 105.491Z" fill="black"/>
<path d="M66.5619 68.1114C66.5751 67.9427 66.5252 67.7751 66.4219 67.6409C66.2607 67.4712 66.1723 67.2454 66.1754 67.0116C66.2376 66.9949 66.2723 67.0295 66.3022 67.0761C66.3321 67.1227 66.3549 67.1716 66.4219 67.125C66.9759 67.3245 67.4462 67.6791 67.9523 67.9609C69.6647 68.9282 71.3686 69.9098 73.0738 70.8902C74.3661 71.6345 75.6561 72.3829 76.9436 73.1352C77.0729 73.2092 77.2117 73.2845 77.2452 73.4528C76.7737 74.3019 76.2939 75.1461 75.8332 76.0011C75.2815 77.0257 74.7562 78.0622 74.1998 79.0868C74.086 79.2702 73.9537 79.4415 73.8049 79.5979C73.7812 79.6199 73.7532 79.6368 73.7227 79.6477C73.6921 79.6585 73.6597 79.6631 73.6274 79.6611C73.5951 79.6591 73.5635 79.6505 73.5346 79.636C73.5056 79.6214 73.48 79.6012 73.4591 79.5764C73.4058 79.5095 73.3653 79.4334 73.3395 79.3519C73.2784 79.1262 73.1109 78.9937 72.9422 78.8551C72.9155 78.8372 72.8852 78.8253 72.8534 78.8203C72.8217 78.8153 72.7892 78.8174 72.7583 78.8262C72.7273 78.8351 72.6988 78.8506 72.6745 78.8717C72.6503 78.8928 72.6309 78.9189 72.6179 78.9483C72.5884 79.0056 72.5701 79.068 72.564 79.1322C72.5796 79.6696 72.4791 80.2129 72.6323 80.7431C72.666 80.8677 72.6619 80.9994 72.6203 81.1216C72.5822 81.2447 72.5616 81.3726 72.5593 81.5014C72.5593 83.0538 72.5365 84.6145 72.5688 86.1705C72.5784 86.5944 72.6885 87.0064 72.5688 87.4375C72.5317 87.57 72.5928 87.7348 72.6287 87.8793C72.7315 88.2339 72.734 88.61 72.6358 88.966C72.5857 89.1193 72.5666 89.281 72.5798 89.4418C72.5929 89.6025 72.638 89.759 72.7124 89.9022L72.5569 90.0562L72.515 90.073L72.4659 90.0921L72.2565 90.2115C72.2304 90.2184 72.2068 90.2324 72.1883 90.2521L72.0363 90.3512L71.9047 90.4348L71.8545 90.4623C71.8147 90.4615 71.7752 90.4698 71.7391 90.4865C71.703 90.5033 71.6713 90.5281 71.6463 90.559C71.6401 90.5734 71.6294 90.5854 71.6158 90.5931C71.6022 90.6009 71.5864 90.604 71.5709 90.602L71.5565 90.6115C71.134 90.917 70.6804 91.1772 70.2031 91.3877L70.0835 91.4701C70.0826 91.4767 70.0804 91.483 70.077 91.4886C70.0736 91.4943 70.0691 91.4992 70.0637 91.503C70.0583 91.5068 70.0522 91.5095 70.0457 91.5108C70.0392 91.5121 70.0325 91.5121 70.0261 91.5107L69.9818 91.5382L69.77 91.6397L69.7341 91.654L69.5307 91.7734C69.4967 91.7824 69.467 91.8032 69.4469 91.8319L69.3069 91.912L69.1705 91.9991C69.1687 92.0053 69.1657 92.0111 69.1616 92.0161C69.1576 92.0211 69.1525 92.0252 69.1468 92.0282C69.1411 92.0312 69.1349 92.0331 69.1285 92.0336C69.122 92.0342 69.1156 92.0334 69.1094 92.0314L69.0819 92.0457C69.0069 92.1291 68.9039 92.1822 68.7924 92.195C68.5859 91.8378 68.4894 91.4279 68.5147 91.0163C68.5339 89.8222 68.5207 88.628 68.5219 87.4411C68.506 87.1593 68.5367 86.8769 68.6129 86.6052C68.6801 86.3524 68.6772 86.0862 68.6045 85.8349C68.4696 85.2452 68.4717 84.6325 68.6105 84.0437C68.668 83.8118 68.6737 83.57 68.6272 83.3356C68.4641 82.4866 68.4613 81.6146 68.6188 80.7646C68.6464 80.6601 68.6464 80.5502 68.6188 80.4458C68.4812 80.1102 68.5399 79.7615 68.5219 79.4188C68.492 78.8372 68.5997 78.2497 68.4429 77.6741C68.4304 77.6104 68.4366 77.5445 68.4609 77.4843C68.5542 77.2311 68.5207 76.9696 68.5207 76.7117C68.5207 75.3241 68.5207 73.9377 68.5207 72.5512C68.5207 72.1823 68.5315 71.8168 68.3269 71.4765C68.2773 71.38 68.2553 71.2718 68.2634 71.1636C68.2742 70.8663 68.1234 70.6358 68.0062 70.3779C67.8004 69.9265 67.5072 69.5277 67.2786 69.0894C67.0944 68.7407 66.9771 68.3037 66.5619 68.1114Z" fill="black"/>
<path d="M82.3715 100.098C83.3336 100.035 84.2977 100.184 85.1955 100.535C86.4735 101.045 87.1208 102.019 87.2776 103.353C87.2824 103.418 87.2824 103.483 87.2776 103.548C87.2692 103.729 87.1783 103.854 87.0119 103.858C86.5776 103.869 86.1444 103.867 85.71 103.858C85.6441 103.86 85.5798 103.838 85.5277 103.798C85.4757 103.757 85.4391 103.7 85.424 103.636C85.3702 103.473 85.3271 103.303 85.2625 103.143C85.1647 102.878 85.0052 102.641 84.7971 102.45C84.589 102.259 84.3384 102.12 84.0659 102.044C83.6049 101.917 83.1285 101.855 82.6503 101.859C82.0855 101.853 81.5207 101.833 80.9691 101.986C80.7814 102.038 80.5975 102.102 80.4186 102.179C79.9915 102.361 79.8084 102.711 79.7761 103.153C79.7474 103.539 79.8957 103.823 80.2643 103.979C80.7884 104.189 81.3394 104.326 81.9012 104.384C82.9136 104.503 83.9187 104.676 84.9215 104.861C85.4771 104.967 86.0118 105.161 86.5046 105.438C86.8352 105.607 87.1155 105.86 87.3175 106.171C87.5195 106.483 87.6361 106.841 87.6557 107.211C87.6737 107.426 87.6713 107.644 87.6737 107.86C87.6832 108.935 87.1519 109.704 86.2904 110.286C85.7208 110.673 85.0699 110.856 84.4105 110.977C82.8882 111.263 81.3182 111.166 79.8431 110.694C79.0055 110.424 78.2875 109.934 77.8424 109.128C77.5735 108.63 77.4418 108.07 77.4606 107.504C77.4606 107.258 77.5803 107.136 77.8124 107.129C78.1822 107.116 78.5507 107.12 78.9193 107.129C79.0185 107.124 79.1159 107.157 79.1919 107.221C79.268 107.285 79.3172 107.375 79.3297 107.473C79.3632 107.62 79.4039 107.767 79.4494 107.912C79.6552 108.637 80.1769 109.034 80.8853 109.172C82.0591 109.408 83.2678 109.412 84.4428 109.182C85.1608 109.041 85.6131 108.598 85.7076 107.959C85.7747 107.5 85.5991 107.163 85.1811 106.948C84.7921 106.753 84.3723 106.628 83.9403 106.576C82.9949 106.446 82.0472 106.337 81.1031 106.193C80.6746 106.126 80.2503 106.035 79.8323 105.919C79.413 105.798 79.0218 105.595 78.6812 105.322C78.3447 105.078 78.0936 104.735 77.9632 104.341C77.6246 103.278 77.7239 102.286 78.4538 101.409C78.7489 101.061 79.1208 100.785 79.5403 100.604C80.4284 100.207 81.4005 100.033 82.3715 100.098Z" fill="black"/>
<path d="M58.48 80.0674C58.7923 80.6083 59.1094 81.1421 59.4146 81.6926C59.8797 82.5214 60.3408 83.3533 60.7979 84.1884C61.1568 84.8511 61.5062 85.5234 61.8748 86.1838C62.4599 87.2442 63.0559 88.2974 63.6458 89.3555C63.7511 89.5441 63.8432 89.7412 63.9461 89.931C64.5444 91.032 65.1427 92.1342 65.759 93.2293C65.8561 93.37 65.9097 93.5361 65.9133 93.7069C65.619 93.7738 65.3641 93.6783 65.1104 93.5314C63.515 92.6063 61.9195 91.6844 60.324 90.7657C58.916 89.9561 57.5056 89.1485 56.0928 88.3428C55.6429 88.0849 55.1906 87.827 54.7454 87.5595C54.5636 87.4496 54.3565 87.3553 54.2883 87.1224C54.408 86.9397 54.5276 86.7642 54.6294 86.5731C55.0278 85.8065 55.4945 85.0792 55.9109 84.3209C56.605 83.0551 57.4163 81.855 58.0995 80.5809C58.2134 80.4005 58.3406 80.2289 58.48 80.0674Z" fill="black"/>
<path d="M72.7078 89.9064C72.6334 89.7632 72.5883 89.6067 72.5751 89.446C72.562 89.2853 72.581 89.1235 72.6312 88.9702C72.7293 88.6143 72.7269 88.2381 72.624 87.8835C72.5881 87.739 72.5271 87.5742 72.5642 87.4417C72.6839 87.0142 72.5762 86.5986 72.5642 86.1747C72.5319 84.6223 72.5498 83.0628 72.5546 81.5056C72.557 81.3768 72.5775 81.2489 72.6156 81.1258C72.6572 81.0036 72.6614 80.8719 72.6276 80.7473C72.4745 80.2171 72.575 79.6726 72.5594 79.1364C72.5654 79.0722 72.5837 79.0098 72.6133 78.9525C72.6263 78.9232 72.6456 78.897 72.6699 78.8759C72.6941 78.8548 72.7227 78.8393 72.7536 78.8304C72.7845 78.8216 72.817 78.8195 72.8488 78.8245C72.8806 78.8295 72.9109 78.8414 72.9375 78.8594C73.1063 78.9943 73.2738 79.1304 73.3348 79.3561C73.3606 79.4376 73.4012 79.5137 73.4545 79.5806C73.4753 79.6054 73.501 79.6256 73.5299 79.6402C73.5588 79.6547 73.5904 79.6633 73.6228 79.6653C73.6551 79.6673 73.6875 79.6627 73.718 79.6519C73.7485 79.641 73.7765 79.6241 73.8003 79.6021C73.9491 79.4457 74.0814 79.2744 74.1952 79.091C74.7468 78.0664 75.2721 77.0299 75.8285 76.0053C76.2892 75.1503 76.7691 74.3061 77.2405 73.457C77.3005 73.4821 77.3539 73.5205 77.3966 73.5693C77.4393 73.6182 77.4703 73.6762 77.487 73.7389C77.5682 74.0076 77.6085 74.2869 77.6067 74.5676C77.5995 78.4557 77.5963 82.3447 77.5971 86.2344C77.5971 86.3204 77.5971 86.4076 77.5971 86.4935C77.566 86.9043 77.4093 87.2447 77.0407 87.462C76.6506 87.6925 76.2617 87.9265 75.8668 88.1522C74.9654 88.6641 74.0627 89.1744 73.1589 89.6831C73.1378 89.6811 73.1166 89.6864 73.0989 89.6981C73.0813 89.7099 73.0682 89.7273 73.062 89.7476C73.0564 89.7621 73.0463 89.7745 73.0332 89.7828C73.02 89.7912 73.0045 89.7952 72.989 89.7942C72.9518 89.7885 72.9138 89.795 72.8806 89.8126C72.8474 89.8303 72.8208 89.8581 72.8047 89.8921C72.8012 89.9038 72.7936 89.914 72.7833 89.9207C72.773 89.9275 72.7607 89.9305 72.7485 89.9291L72.7078 89.9064Z" fill="black"/>
<path d="M66.5621 68.1123C66.9773 68.3046 67.0946 68.7416 67.28 69.0891C67.5086 69.5274 67.8018 69.925 68.0076 70.3776C68.1272 70.6355 68.2756 70.866 68.2648 71.1633C68.2567 71.2715 68.2787 71.3797 68.3283 71.4762C68.5329 71.8118 68.5221 72.1772 68.5221 72.5509C68.5221 73.9374 68.5221 75.3238 68.5221 76.7114C68.5221 76.9693 68.5556 77.2308 68.4623 77.484C68.438 77.5442 68.4318 77.6101 68.4443 77.6738C68.6011 78.2494 68.4934 78.8369 68.5233 79.4185C68.5413 79.7612 68.4826 80.1099 68.6202 80.4455C68.6478 80.55 68.6478 80.6598 68.6202 80.7643C68.4627 81.6143 68.4655 82.4863 68.6286 83.3353C68.6751 83.5697 68.6694 83.8115 68.6119 84.0434C68.473 84.6322 68.471 85.2449 68.6059 85.8346C68.6786 86.0859 68.6815 86.3521 68.6142 86.6049C68.5381 86.8766 68.5074 87.159 68.5233 87.4408C68.5233 88.6349 68.5353 89.8291 68.5161 91.016C68.4907 91.4276 68.5873 91.8375 68.7937 92.1947C68.088 92.6838 67.3423 93.1128 66.5645 93.4772C66.5369 92.9398 66.6422 92.4024 66.4963 91.8639C66.485 91.7793 66.4928 91.6932 66.519 91.6119C66.6025 91.2529 66.5885 90.8782 66.4783 90.5264C66.4105 90.2964 66.4185 90.0507 66.501 89.8255C66.5987 89.4922 66.6021 89.1384 66.5106 88.8033C66.4173 88.4104 66.391 86.083 66.4951 85.7057C66.5477 85.511 66.5884 85.3283 66.4951 85.1396C66.361 84.8531 66.598 84.6023 66.5716 84.3181C66.5477 84.0613 66.367 83.8249 66.4616 83.5586C66.744 82.7657 66.6937 81.9429 66.6937 81.1249C66.6937 78.7669 66.6937 76.4084 66.6937 74.0496C66.6937 73.7069 66.7475 73.3582 66.6255 73.0202C66.6069 72.9587 66.6069 72.8931 66.6255 72.8316C66.7918 72.2238 66.6901 71.6303 66.5214 71.0463C66.458 70.8302 66.4125 70.6308 66.513 70.4194C66.5225 70.3999 66.5302 70.3795 66.5357 70.3585C66.6375 70.0313 66.4316 69.7148 66.4783 69.4032C66.525 69.0915 66.6207 68.7763 66.4783 68.4562C66.4451 68.3992 66.4353 68.3315 66.4509 68.2674C66.4665 68.2033 66.5063 68.1478 66.5621 68.1123Z" fill="black"/>
<path d="M58.4801 80.0676C58.3402 80.2303 58.2126 80.4031 58.0984 80.5847C57.4152 81.8589 56.6039 83.059 55.9098 84.3248C55.4934 85.0831 55.0267 85.8103 54.6283 86.5769C54.5289 86.7668 54.4009 86.9435 54.2872 87.1262C54.2025 87.0424 54.1358 86.9422 54.0911 86.8317C54.0465 86.7212 54.0248 86.6029 54.0276 86.4838C54.0276 86.3321 54.0276 86.1805 54.0276 86.0288C54.0276 82.2203 54.0276 78.4122 54.0276 74.6044C54.0276 74.4957 54.0276 74.3883 54.0276 74.2796C54.0276 73.8628 54.1748 73.5213 54.5421 73.2944C54.6185 73.2991 54.6923 73.3243 54.7555 73.3674C54.8187 73.4105 54.869 73.4699 54.9011 73.5392C55.1727 74.0049 55.4719 74.4575 55.7172 74.9376C56.1815 75.8427 56.684 76.7288 57.1842 77.6089C57.6306 78.4173 58.047 79.2473 58.4801 80.0676Z" fill="black"/>
<path d="M125.972 80.2728C125.972 80.6179 125.972 80.963 125.972 81.3093C125.98 81.3956 125.963 81.4822 125.922 81.5585C125.881 81.6348 125.818 81.6972 125.741 81.738C125.141 82.0812 124.543 82.4251 123.946 82.7698C123.874 82.8168 123.789 82.8418 123.702 82.8418C123.615 82.8418 123.53 82.8168 123.457 82.7698C122.877 82.4342 122.298 82.0999 121.714 81.7715C121.617 81.7223 121.538 81.6455 121.486 81.551C121.434 81.4565 121.412 81.3486 121.422 81.2413C121.431 80.6143 121.434 79.9886 121.422 79.3629C121.408 79.2453 121.431 79.1264 121.488 79.0227C121.546 78.9191 121.634 78.8359 121.741 78.7849C122.272 78.4947 122.797 78.1878 123.316 77.8809C123.421 77.8047 123.546 77.7617 123.676 77.7576C123.806 77.7536 123.934 77.7887 124.043 77.8583C124.619 78.1998 125.203 78.527 125.784 78.8589C125.843 78.8889 125.891 78.9345 125.924 78.9907C125.958 79.0469 125.974 79.1114 125.972 79.1766C125.972 79.5432 125.972 79.9098 125.972 80.2776V80.2728Z" fill="black"/>
<path d="M95.1741 100.999C94.1258 100.992 93.2451 100.137 93.2475 99.1098C93.2399 98.8487 93.2859 98.5889 93.3827 98.3464C93.4796 98.1038 93.6253 97.8836 93.8107 97.6994C93.9962 97.5152 94.2176 97.3709 94.4611 97.2754C94.7046 97.1799 94.9652 97.1353 95.2267 97.1442C96.3778 97.1836 97.1413 98.0744 97.1257 99.1312C97.1102 100.188 96.1613 101.036 95.1741 100.999ZM95.2016 100.641C95.9734 100.718 96.8098 99.9242 96.7823 99.025C96.763 98.6133 96.5881 98.2242 96.2928 97.9361C95.9974 97.648 95.6037 97.4824 95.1908 97.4726C94.3065 97.4905 93.5407 98.2141 93.5658 99.0715C93.5862 99.8274 94.2299 100.717 95.204 100.645L95.2016 100.641Z" fill="black"/>
<path d="M95.204 100.645C94.2323 100.716 93.5886 99.8268 93.5682 99.0721C93.5431 98.2147 94.3089 97.4911 95.1932 97.4731C95.6061 97.483 95.9999 97.6486 96.2952 97.9367C96.5905 98.2248 96.7654 98.6139 96.7847 99.0255C96.8098 99.9247 95.9734 100.722 95.204 100.645ZM94.4621 99.0685C94.4621 99.3277 94.4621 99.5868 94.4621 99.8459C94.4621 100.025 94.5435 100.106 94.6799 100.099C94.8163 100.092 94.857 99.9988 94.8654 99.8829C94.8737 99.7671 94.8654 99.6668 94.8761 99.5593C94.8733 99.5269 94.8776 99.4942 94.8885 99.4635C94.8994 99.4328 94.9168 99.4049 94.9395 99.3814C94.9621 99.358 94.9896 99.3397 95.0199 99.3278C95.0503 99.3158 95.0829 99.3105 95.1154 99.3121C95.3189 99.3002 95.4385 99.3587 95.4744 99.5116C95.5103 99.6644 95.5103 99.8113 95.5414 99.9582C95.5524 99.9883 95.5694 100.016 95.5913 100.039C95.6133 100.063 95.6397 100.082 95.6691 100.095C95.6984 100.108 95.7301 100.115 95.7623 100.115C95.7944 100.116 95.8263 100.11 95.8561 100.098C95.8981 100.087 95.9342 100.061 95.9566 100.024C95.979 99.987 95.9859 99.9428 95.9758 99.9008C95.9614 99.7289 95.9277 99.559 95.8753 99.3945C95.8321 99.2999 95.8123 99.1962 95.8175 99.0924C95.8227 98.9885 95.8528 98.8874 95.9052 98.7975C96.0991 98.4177 95.8681 98.0523 95.4481 98.001C95.3403 97.9918 95.232 97.9886 95.1238 97.9914C94.4693 97.9842 94.4693 97.9842 94.4645 98.61C94.4597 98.7664 94.4597 98.9169 94.4597 99.0685H94.4621Z" fill="white"/>
</svg>
