<svg width="111" height="68" viewBox="0 0 111 68" fill="none" xmlns="http://www.w3.org/2000/svg">
<path d="M81.6111 20.4554V35.0108C81.6111 35.184 81.6111 35.3571 81.6111 35.5303C81.6154 35.7809 81.5498 36.0278 81.4215 36.2434C81.2933 36.4589 81.1074 36.6346 80.8848 36.7507C80.2099 37.1424 79.5362 37.5352 78.8601 37.9233C77.7329 38.5714 76.6053 39.2178 75.4773 39.8626C74.0868 40.6587 72.6968 41.4548 71.3071 42.2509C71.1001 42.3703 70.8895 42.4826 70.6945 42.6187C70.0698 43.051 69.4524 43.0546 68.8158 42.6378C68.4568 42.399 68.0703 42.1972 67.6946 41.9823C65.9667 40.9895 64.2388 39.9972 62.5109 39.0052C61.2162 38.2601 59.9218 37.5134 58.6279 36.765C58.3859 36.6389 58.1851 36.4463 58.0494 36.2099C57.9137 35.9735 57.8487 35.7033 57.8621 35.4312C57.8621 34.2621 57.8621 33.0918 57.8621 31.9228V24.0032C57.8621 23.8515 57.8621 23.6999 57.8621 23.5494C57.8509 23.2877 57.9146 23.0282 58.0457 22.8013C58.1769 22.5743 58.3701 22.3894 58.6028 22.2681C58.9402 22.0734 59.2753 21.874 59.6139 21.6806C61.3067 20.7133 62.9999 19.7464 64.6935 18.78C65.7645 18.165 66.827 17.5369 67.8944 16.9159C68.2534 16.7081 68.6124 16.5063 68.9642 16.2997C69.5026 15.9869 70.0315 16.0036 70.564 16.32C71.2724 16.7404 71.9868 17.15 72.6988 17.5643C72.8388 17.6666 72.9992 17.7378 73.169 17.7733C73.4407 17.8055 73.6561 17.6766 73.6956 17.4151C73.7205 17.2003 73.7293 16.9839 73.7219 16.7678C73.7219 11.7644 73.7219 6.76088 73.7219 1.75741C73.7219 1.54127 73.7159 1.32393 73.7326 1.10779C73.7374 1.01611 73.7637 0.926821 73.8093 0.847087C73.8549 0.767353 73.9186 0.699393 73.9952 0.648656C74.0719 0.597919 74.1594 0.56582 74.2507 0.55493C74.3421 0.54404 74.4347 0.554662 74.5212 0.585948C74.7048 0.650939 74.8815 0.733732 75.0489 0.833137C76.1474 1.44295 77.2451 2.05554 78.342 2.67093C79.1365 3.11396 79.9263 3.56774 80.7352 3.99166C81.3335 4.30811 81.6255 4.77382 81.6183 5.45329C81.6051 6.77521 81.6183 8.09594 81.6183 9.41786L81.6111 20.4554ZM73.674 29.5166C73.674 28.9314 73.6489 28.3451 73.6824 27.7624C73.7063 27.3492 73.5268 27.1151 73.187 26.942C72.9357 26.8154 72.6952 26.6685 72.4511 26.5288C71.6613 26.075 70.868 25.6272 70.0854 25.1627C69.8317 25.011 69.6068 24.9883 69.3674 25.1627C69.298 25.2128 69.2083 25.232 69.1281 25.2761C68.1337 25.8493 67.1429 26.4321 66.1366 26.9969C66.0106 27.057 65.9062 27.1543 65.8375 27.2756C65.7687 27.397 65.7391 27.5365 65.7525 27.6752C65.768 28.6711 65.7525 29.6682 65.7525 30.6605C65.7525 30.9424 65.7525 31.2242 65.7525 31.5048C65.7489 31.5918 65.7709 31.6779 65.8158 31.7526C65.8607 31.8273 65.9264 31.8873 66.005 31.9251C66.2898 32.0828 66.571 32.2464 66.8534 32.4028C67.6994 32.8805 68.5513 33.3581 69.3902 33.8573C69.4885 33.9225 69.6046 33.9561 69.7227 33.9536C69.8408 33.951 69.9553 33.9124 70.0507 33.8429C71.1348 33.2061 72.2245 32.5795 73.3198 31.9634C73.4271 31.9155 73.5179 31.8373 73.5808 31.7383C73.6438 31.6394 73.6762 31.5241 73.674 31.4069C73.674 30.7728 73.674 30.1447 73.674 29.5166Z" fill="black"/>
<path d="M23.7326 31.2221V38.8897C23.7326 39.0413 23.7231 39.1942 23.7326 39.3446C23.7709 39.9107 23.1631 40.288 22.6425 39.919C22.396 39.7447 22.1172 39.6169 21.854 39.4664C20.1249 38.4741 18.403 37.471 16.6655 36.4942C16.0911 36.1718 15.8279 35.7216 15.841 35.072C15.8554 34.2492 15.841 33.4264 15.841 32.6037C15.841 31.0871 15.8159 29.5694 15.8518 28.054C15.8709 27.2181 15.5503 26.6735 14.7916 26.3046C14.0521 25.9463 13.3557 25.5045 12.6473 25.0806C12.1256 24.7665 11.6302 24.788 11.1144 25.0925C10.3319 25.5558 9.54289 26.0084 8.74755 26.4502C8.17677 26.7667 7.92548 27.2276 7.92907 27.8832C7.94343 30.1784 7.90873 32.4759 7.94822 34.7711C7.96258 35.6499 7.68856 36.2231 6.88085 36.653C5.12184 37.5892 3.41069 38.6126 1.67801 39.6002C1.45185 39.7292 1.23646 39.8808 1.00192 39.9907C0.556787 40.1996 0.177466 40.0002 0.0769511 39.513C0.0527918 39.3634 0.0435713 39.2118 0.0494279 39.0604C0.0398551 33.8396 0.0318762 28.6192 0.0254943 23.3992C0.0194967 23.291 0.0194967 23.1826 0.0254943 23.0744C0.0817348 22.5967 0.264818 22.2146 0.708759 21.965C1.59784 21.4683 2.47255 20.9464 3.35565 20.4365C4.48126 19.7869 5.60846 19.1389 6.73725 18.4924C8.20309 17.6565 9.67133 16.8206 11.1336 15.9692C11.6553 15.6671 12.1399 15.6766 12.664 15.9847C14.234 16.9054 15.8147 17.8058 17.3942 18.7098C19.0862 19.677 20.7802 20.6423 22.4762 21.6056C22.7155 21.7453 22.9632 21.891 23.1942 22.051C23.3604 22.1556 23.4972 22.3007 23.5919 22.4727C23.6865 22.6446 23.7357 22.8377 23.735 23.0338C23.735 23.2284 23.735 23.4231 23.735 23.6189V31.2221H23.7326Z" fill="black"/>
<path d="M86.8871 29.3264V23.8011C86.8871 23.6494 86.8871 23.4978 86.8871 23.3461C86.8727 22.7705 87.1264 22.3609 87.6277 22.0743C89.8694 20.8006 92.107 19.5193 94.3407 18.2304C95.4308 17.6035 96.5149 16.967 97.6026 16.3377C97.7905 16.229 97.9832 16.1311 98.1758 16.0308C98.347 15.9347 98.5401 15.8843 98.7364 15.8843C98.9328 15.8843 99.1259 15.9347 99.297 16.0308C99.7932 16.2975 100.286 16.5709 100.775 16.8511C102.577 17.8861 104.378 18.9274 106.178 19.975C107.374 20.6708 108.571 21.3702 109.767 22.0731C110.246 22.3562 110.531 22.7419 110.515 23.3389C110.49 24.2704 110.496 25.203 110.515 26.1344C110.525 26.6981 110.266 27.079 109.797 27.3489L106.082 29.4984C105.313 29.9434 104.545 30.3908 103.778 30.8406C103.041 31.274 102.572 31.0101 102.563 30.1432C102.554 29.3849 102.563 28.6266 102.563 27.8683C102.563 27.7167 102.563 27.565 102.555 27.4134C102.553 27.2945 102.519 27.1785 102.455 27.0777C102.392 26.977 102.303 26.8953 102.196 26.8414C101.178 26.2642 100.165 25.6779 99.1582 25.0824C98.8064 24.8746 98.4953 24.8531 98.128 25.0752C97.1443 25.6723 96.1452 26.2347 95.1424 26.7948C94.996 26.8662 94.8739 26.9792 94.7917 27.1197C94.7095 27.2602 94.6709 27.4218 94.6805 27.5841C94.6805 28.7544 94.6901 29.9235 94.6805 31.0937C94.6736 31.2565 94.7141 31.4178 94.7972 31.5581C94.8802 31.6984 95.0022 31.8117 95.1484 31.8843C95.5074 32.092 95.8664 32.2939 96.2253 32.4969C97.9197 33.4617 99.6145 34.4262 101.31 35.3903C102.608 36.1306 103.904 36.875 105.199 37.6233C105.349 37.7105 105.493 37.8084 105.644 37.8944C106.042 38.1237 106.094 38.7124 105.618 39.0265C105.438 39.1459 105.241 39.2378 105.05 39.3417C103.607 40.1378 102.164 40.9315 100.721 41.7228C100.303 41.9533 99.8834 42.173 99.4741 42.425C98.9404 42.7594 98.4367 42.757 97.8874 42.4393C96.0124 41.3527 94.1277 40.2899 92.2442 39.2151C90.794 38.39 89.3401 37.572 87.8886 36.7492C87.757 36.674 87.6325 36.5856 87.4985 36.5104C87.0953 36.2907 86.9349 35.9288 86.9002 35.4966C86.8871 35.3234 86.893 35.1503 86.893 34.9759V29.3264H86.8871Z" fill="black"/>
<path d="M29.5349 22.2939C29.8604 21.9679 30.2864 21.7971 30.6729 21.5678C31.8444 20.8728 33.0254 20.1946 34.2053 19.5151C35.2367 18.918 36.273 18.34 37.3045 17.7489C38.093 17.2987 38.8768 16.8414 39.6654 16.3888C39.8329 16.2921 40.01 16.2097 40.1787 16.113C40.3267 16.0228 40.4931 15.9669 40.6656 15.9493C40.8381 15.9318 41.0123 15.953 41.1755 16.0115C41.1724 16.2452 41.2609 16.471 41.422 16.6408C41.5253 16.7749 41.5752 16.9426 41.562 17.1113C41.5058 17.1463 41.4655 17.2018 41.4494 17.2659C41.4334 17.33 41.4428 17.3979 41.4758 17.4552C41.6158 17.7752 41.5225 18.0785 41.4758 18.4021C41.4292 18.7258 41.635 19.0267 41.5333 19.3575C41.5277 19.3784 41.5201 19.3988 41.5105 19.4184C41.41 19.6297 41.4555 19.8291 41.5189 20.0453C41.6876 20.6292 41.7893 21.2227 41.623 21.8305C41.6045 21.8921 41.6045 21.9577 41.623 22.0192C41.7427 22.3572 41.69 22.7058 41.6912 23.0486C41.696 25.4074 41.696 27.7658 41.6912 30.1239C41.6912 30.9419 41.7415 31.7646 41.4591 32.5576C41.3646 32.8239 41.5452 33.0603 41.5692 33.317C41.5955 33.6012 41.3586 33.852 41.4926 34.1386C41.5811 34.3273 41.5405 34.51 41.4926 34.7046C41.3909 35.082 41.4148 37.4094 41.5081 37.8022C41.5996 38.1373 41.5963 38.4911 41.4986 38.8244C41.416 39.0496 41.408 39.2953 41.4758 39.5254C41.586 39.8772 41.6001 40.2519 41.5165 40.6109C41.4903 40.6922 41.4825 40.7782 41.4938 40.8628C41.6398 41.3966 41.5345 41.9376 41.562 42.4761C41.5353 42.5148 41.4995 42.5464 41.4578 42.5683C41.4161 42.5901 41.3698 42.6015 41.3227 42.6015L41.1815 42.6827C41.141 42.7057 41.0963 42.7202 41.05 42.7256C41.0038 42.7309 40.9569 42.7269 40.9122 42.7138C40.9086 42.5429 40.8549 42.3769 40.7579 42.2361C40.1464 41.1411 39.5469 40.0389 38.945 38.9379C38.8421 38.748 38.75 38.551 38.6447 38.3623C38.0547 37.3043 37.4588 36.2511 36.8737 35.1906C36.5087 34.5303 36.1629 33.858 35.7967 33.1952C35.3404 32.3609 34.8794 31.529 34.4135 30.6995C34.1083 30.1537 33.7912 29.6152 33.4789 29.0742C33.0458 28.2538 32.6293 27.4239 32.1734 26.6155C31.6732 25.7306 31.1707 24.8493 30.7064 23.9442C30.4671 23.4665 30.1619 23.0115 29.8903 22.5458C29.8595 22.4756 29.8102 22.4151 29.7476 22.3707C29.685 22.3263 29.6115 22.2998 29.5349 22.2939Z" fill="black"/>
<path d="M66.7229 54.4911V59.7561C66.7229 59.9507 66.7325 60.1477 66.7133 60.3412C66.6499 60.9753 66.3878 61.5115 65.8422 61.8649C65.2774 62.2291 64.6982 62.5719 64.1167 62.9086C62.3513 63.9284 60.5855 64.945 58.8193 65.9585C57.8429 66.5209 56.8748 67.0977 55.89 67.6446C55.0524 68.1115 54.198 68.1223 53.3556 67.6147C52.445 67.0678 51.526 66.54 50.6142 65.9907C50.4286 65.879 50.2521 65.7528 50.0865 65.6134C50.0698 65.5991 50.057 65.5808 50.0492 65.5603C50.0414 65.5398 50.0389 65.5177 50.0419 65.496C50.0449 65.4742 50.0532 65.4536 50.0662 65.4359C50.0793 65.4183 50.0965 65.4041 50.1164 65.3948C50.2277 65.3283 50.3446 65.2716 50.4658 65.2253C50.8248 65.0832 51.1993 64.9566 51.5236 64.7297C51.6028 64.672 51.6986 64.6416 51.7966 64.6431C51.8947 64.6446 51.9895 64.6779 52.0669 64.738C52.6783 65.1082 53.2982 65.4665 53.9144 65.8307C53.9886 65.8749 54.0616 65.9214 54.1322 65.9728C54.2772 66.0889 54.4568 66.1535 54.6427 66.1566C54.8286 66.1596 55.0102 66.1008 55.1589 65.9895C55.4688 65.7901 55.7955 65.6181 56.1162 65.4342C57.7659 64.4789 59.4164 63.5212 61.0677 62.5611C62.1375 61.9425 63.2132 61.3347 64.2866 60.7221C64.4063 60.6576 64.5104 60.5908 64.624 60.5263C64.7222 60.4787 64.8031 60.4019 64.8558 60.3066C64.9085 60.2112 64.9304 60.1019 64.9184 59.9937C64.9088 59.8635 64.9184 59.7334 64.9184 59.6032V49.2679C64.9184 48.4785 64.9184 48.4857 64.2351 48.1036C63.1402 47.485 62.0501 46.8569 60.96 46.23C59.2497 45.2468 57.5405 44.262 55.8326 43.2756C55.6256 43.1562 55.4162 43.0368 55.2211 42.9054C54.8621 42.6523 54.5175 42.6511 54.1334 42.8792C52.7334 43.7067 51.3226 44.5223 49.913 45.3343C48.5967 46.0926 47.2804 46.8402 45.9642 47.5949C45.5502 47.8337 45.1445 48.0857 44.7257 48.3114C44.6166 48.3608 44.5257 48.4431 44.4661 48.5469C44.4064 48.6506 44.3808 48.7704 44.393 48.8893C44.399 48.998 44.393 49.1067 44.393 49.2141C44.393 52.6803 44.393 56.1473 44.393 59.6151C44.393 60.3973 44.3296 60.3125 45.0416 60.7269C45.7727 61.1508 46.511 61.5628 47.2469 61.9784C47.5848 62.18 47.9734 62.2811 48.367 62.2697C48.6853 62.2678 48.9914 62.1475 49.2257 61.9325C49.46 61.7174 49.6056 61.423 49.6342 61.1066C49.6505 60.8905 49.6549 60.6736 49.6473 60.457V50.3175C49.6473 50.1229 49.6473 49.927 49.6581 49.7336C49.6689 49.5401 49.7885 49.3956 49.9812 49.3885C50.3713 49.3741 50.7626 49.3741 51.1527 49.3885C51.3489 49.3956 51.4506 49.521 51.4686 49.7348C51.4817 49.8852 51.4769 50.0381 51.4769 50.1897C51.4769 53.7212 51.4769 57.2527 51.4769 60.7842C51.4818 61.0876 51.4698 61.3909 51.441 61.693C51.4096 62.0612 51.3014 62.4189 51.1234 62.743C50.9454 63.0671 50.7014 63.3505 50.4072 63.5749C50.1672 63.7626 49.891 63.8988 49.5959 63.975C48.5919 64.2281 47.6131 64.1708 46.6786 63.7039C46.2131 63.4722 45.7548 63.2262 45.3025 62.9683C44.7353 62.6483 44.1765 62.3163 43.6164 61.9867C43.3217 61.8207 43.0731 61.584 42.8932 61.2979C42.7133 61.0118 42.6078 60.6854 42.5862 60.3484C42.5658 60.1334 42.5551 59.9161 42.5551 59.6999C42.5551 56.1907 42.5551 52.6807 42.5551 49.1699C42.5551 49.0183 42.5551 48.8666 42.5634 48.715C42.6113 47.8791 42.9631 47.233 43.7193 46.8043C44.8561 46.1702 45.975 45.5063 47.1022 44.8555L51.331 42.4218C52.025 42.0218 52.7178 41.6182 53.413 41.2181C54.1849 40.7727 54.9686 40.7118 55.7644 41.1572C56.0863 41.3363 56.4117 41.5095 56.7312 41.6934L62.8662 45.2436C63.8235 45.7977 64.7808 46.3434 65.7381 46.9082C66.3866 47.2927 66.6882 47.8946 66.7289 48.635C66.7372 48.7854 66.7289 48.9383 66.7289 49.0899L66.7229 54.4911Z" fill="black"/>
<path d="M41.5619 17.1114C41.5751 16.9427 41.5252 16.7751 41.4219 16.6409C41.2607 16.4712 41.1723 16.2454 41.1754 16.0116C41.2376 15.9949 41.2723 16.0295 41.3022 16.0761C41.3321 16.1227 41.3549 16.1716 41.4219 16.125C41.9759 16.3245 42.4462 16.6791 42.9523 16.9609C44.6647 17.9282 46.3686 18.9098 48.0738 19.8902C49.3661 20.6345 50.6561 21.3829 51.9436 22.1352C52.0729 22.2092 52.2117 22.2845 52.2452 22.4528C51.7737 23.3019 51.2939 24.1461 50.8332 25.0011C50.2815 26.0257 49.7562 27.0622 49.1998 28.0868C49.086 28.2702 48.9537 28.4415 48.8049 28.5979C48.7812 28.6199 48.7532 28.6368 48.7227 28.6477C48.6921 28.6585 48.6597 28.6631 48.6274 28.6611C48.5951 28.6591 48.5635 28.6505 48.5346 28.636C48.5056 28.6214 48.48 28.6012 48.4591 28.5764C48.4058 28.5095 48.3653 28.4334 48.3395 28.3519C48.2784 28.1262 48.1109 27.9937 47.9422 27.8551C47.9155 27.8372 47.8852 27.8253 47.8534 27.8203C47.8217 27.8153 47.7892 27.8174 47.7583 27.8262C47.7273 27.8351 47.6988 27.8506 47.6745 27.8717C47.6503 27.8928 47.6309 27.9189 47.6179 27.9483C47.5884 28.0056 47.5701 28.068 47.564 28.1322C47.5796 28.6696 47.4791 29.2129 47.6323 29.7431C47.666 29.8677 47.6619 29.9994 47.6203 30.1216C47.5822 30.2447 47.5616 30.3726 47.5593 30.5014C47.5593 32.0538 47.5365 33.6145 47.5688 35.1705C47.5784 35.5944 47.6885 36.0064 47.5688 36.4375C47.5317 36.57 47.5928 36.7348 47.6287 36.8793C47.7315 37.2339 47.734 37.61 47.6358 37.966C47.5857 38.1193 47.5666 38.281 47.5798 38.4418C47.5929 38.6025 47.638 38.759 47.7124 38.9022L47.5569 39.0562L47.515 39.073L47.4659 39.0921L47.2565 39.2115C47.2304 39.2184 47.2068 39.2324 47.1883 39.2521L47.0363 39.3512L46.9047 39.4348L46.8545 39.4623C46.8147 39.4615 46.7752 39.4698 46.7391 39.4865C46.703 39.5033 46.6713 39.5281 46.6463 39.559C46.6401 39.5734 46.6294 39.5854 46.6158 39.5931C46.6022 39.6009 46.5864 39.604 46.5709 39.602L46.5565 39.6115C46.134 39.917 45.6804 40.1772 45.2031 40.3877L45.0835 40.4701C45.0826 40.4767 45.0804 40.483 45.077 40.4886C45.0736 40.4943 45.0691 40.4992 45.0637 40.503C45.0583 40.5068 45.0522 40.5095 45.0457 40.5108C45.0392 40.5121 45.0325 40.5121 45.0261 40.5107L44.9818 40.5382L44.77 40.6397L44.7341 40.654L44.5307 40.7734C44.4967 40.7824 44.467 40.8032 44.4469 40.8319L44.3069 40.912L44.1705 40.9991C44.1687 41.0053 44.1657 41.0111 44.1616 41.0161C44.1576 41.0211 44.1525 41.0252 44.1468 41.0282C44.1411 41.0312 44.1349 41.0331 44.1285 41.0336C44.122 41.0342 44.1156 41.0334 44.1094 41.0314L44.0819 41.0457C44.0069 41.1291 43.9039 41.1822 43.7924 41.195C43.5859 40.8378 43.4894 40.4279 43.5147 40.0163C43.5339 38.8222 43.5207 37.628 43.5219 36.4411C43.506 36.1593 43.5367 35.8769 43.6129 35.6052C43.6801 35.3524 43.6772 35.0862 43.6045 34.8349C43.4696 34.2452 43.4717 33.6325 43.6105 33.0437C43.668 32.8118 43.6737 32.57 43.6272 32.3356C43.4641 31.4866 43.4613 30.6146 43.6188 29.7646C43.6464 29.6601 43.6464 29.5502 43.6188 29.4458C43.4812 29.1102 43.5399 28.7615 43.5219 28.4188C43.492 27.8372 43.5997 27.2497 43.4429 26.6741C43.4304 26.6104 43.4366 26.5445 43.4609 26.4843C43.5542 26.2311 43.5207 25.9696 43.5207 25.7117C43.5207 24.3241 43.5207 22.9377 43.5207 21.5512C43.5207 21.1823 43.5315 20.8168 43.3269 20.4765C43.2773 20.38 43.2553 20.2718 43.2634 20.1636C43.2742 19.8663 43.1234 19.6358 43.0062 19.3779C42.8004 18.9265 42.5072 18.5277 42.2786 18.0894C42.0944 17.7407 41.9771 17.3037 41.5619 17.1114Z" fill="black"/>
<path d="M57.3715 49.098C58.3336 49.0352 59.2977 49.1844 60.1955 49.535C61.4735 50.0449 62.1208 51.0193 62.2776 52.3532C62.2824 52.418 62.2824 52.4831 62.2776 52.5479C62.2692 52.7294 62.1783 52.8536 62.0119 52.8583C61.5776 52.8691 61.1444 52.8667 60.71 52.8583C60.6441 52.8595 60.5798 52.8381 60.5277 52.7977C60.4757 52.7573 60.4391 52.7003 60.424 52.6362C60.3702 52.4726 60.3271 52.3031 60.2625 52.143C60.1647 51.8783 60.0052 51.6406 59.7971 51.4496C59.589 51.2585 59.3384 51.1197 59.0659 51.0444C58.6049 50.9174 58.1285 50.8551 57.6503 50.8593C57.0855 50.8534 56.5207 50.8331 55.9691 50.9859C55.7814 51.0379 55.5975 51.1025 55.4186 51.1794C54.9915 51.3609 54.8084 51.7108 54.7761 52.1526C54.7474 52.5395 54.8957 52.8225 55.2643 52.9789C55.7884 53.1893 56.3394 53.3255 56.9012 53.3838C57.9136 53.5032 58.9187 53.6763 59.9215 53.8614C60.4771 53.9666 61.0118 54.1614 61.5046 54.4382C61.8352 54.6074 62.1155 54.8602 62.3175 55.1714C62.5195 55.4826 62.6361 55.8412 62.6557 56.2115C62.6737 56.4264 62.6713 56.6438 62.6737 56.8599C62.6832 57.9347 62.1519 58.7037 61.2904 59.2864C60.7208 59.6733 60.0699 59.856 59.4105 59.9766C57.8882 60.2631 56.3182 60.1658 54.8431 59.6936C54.0055 59.4238 53.2875 58.9342 52.8424 58.1281C52.5735 57.63 52.4418 57.0696 52.4606 56.5041C52.4606 56.2581 52.5803 56.1363 52.8124 56.1291C53.1822 56.116 53.5507 56.1196 53.9193 56.1291C54.0185 56.1244 54.1159 56.1572 54.1919 56.2209C54.268 56.2847 54.3172 56.3747 54.3297 56.473C54.3632 56.6199 54.4039 56.7668 54.4494 56.9125C54.6552 57.6373 55.1769 58.0338 55.8853 58.1723C57.0591 58.4083 58.2678 58.4116 59.4428 58.1818C60.1608 58.0409 60.6131 57.5979 60.7076 56.959C60.7747 56.5005 60.5991 56.1633 60.1811 55.9476C59.7921 55.7532 59.3723 55.6276 58.9403 55.5762C57.9949 55.4461 57.0472 55.3374 56.1031 55.1929C55.6746 55.1263 55.2503 55.035 54.8323 54.9194C54.413 54.798 54.0218 54.5951 53.6812 54.3224C53.3447 54.0783 53.0936 53.7349 52.9632 53.3408C52.6246 52.278 52.7239 51.2856 53.4538 50.4091C53.7489 50.0607 54.1208 49.7853 54.5403 49.6043C55.4284 49.2072 56.4005 49.0334 57.3715 49.098Z" fill="black"/>
<path d="M33.48 29.0674C33.7923 29.6083 34.1094 30.1421 34.4146 30.6926C34.8797 31.5214 35.3408 32.3533 35.7979 33.1884C36.1568 33.8511 36.5062 34.5234 36.8748 35.1838C37.4599 36.2442 38.0559 37.2974 38.6458 38.3555C38.7511 38.5441 38.8432 38.7412 38.9461 38.931C39.5444 40.032 40.1427 41.1342 40.759 42.2293C40.8561 42.37 40.9097 42.5361 40.9133 42.7069C40.619 42.7738 40.3641 42.6783 40.1104 42.5314C38.515 41.6063 36.9195 40.6844 35.324 39.7657C33.916 38.9561 32.5056 38.1485 31.0928 37.3428C30.6429 37.0849 30.1906 36.827 29.7454 36.5595C29.5636 36.4496 29.3565 36.3553 29.2883 36.1224C29.408 35.9397 29.5276 35.7642 29.6294 35.5731C30.0278 34.8065 30.4945 34.0792 30.9109 33.3209C31.605 32.0551 32.4163 30.855 33.0995 29.5809C33.2134 29.4005 33.3406 29.2289 33.48 29.0674Z" fill="black"/>
<path d="M47.7078 38.9064C47.6334 38.7632 47.5883 38.6067 47.5751 38.446C47.562 38.2853 47.581 38.1235 47.6312 37.9702C47.7293 37.6143 47.7269 37.2381 47.624 36.8835C47.5881 36.739 47.5271 36.5742 47.5642 36.4417C47.6839 36.0142 47.5762 35.5986 47.5642 35.1747C47.5319 33.6223 47.5498 32.0628 47.5546 30.5056C47.557 30.3768 47.5775 30.2489 47.6156 30.1258C47.6572 30.0036 47.6614 29.8719 47.6276 29.7473C47.4745 29.2171 47.575 28.6726 47.5594 28.1364C47.5654 28.0722 47.5837 28.0098 47.6133 27.9525C47.6263 27.9232 47.6456 27.897 47.6699 27.8759C47.6941 27.8548 47.7227 27.8393 47.7536 27.8304C47.7845 27.8216 47.817 27.8195 47.8488 27.8245C47.8806 27.8295 47.9109 27.8414 47.9375 27.8594C48.1063 27.9943 48.2738 28.1304 48.3348 28.3561C48.3606 28.4376 48.4012 28.5137 48.4545 28.5806C48.4753 28.6054 48.501 28.6256 48.5299 28.6402C48.5588 28.6547 48.5904 28.6633 48.6228 28.6653C48.6551 28.6673 48.6875 28.6627 48.718 28.6519C48.7485 28.641 48.7765 28.6241 48.8003 28.6021C48.9491 28.4457 49.0814 28.2744 49.1952 28.091C49.7468 27.0664 50.2721 26.0299 50.8285 25.0053C51.2892 24.1503 51.7691 23.3061 52.2405 22.457C52.3005 22.4821 52.3539 22.5205 52.3966 22.5693C52.4393 22.6182 52.4703 22.6762 52.487 22.7389C52.5682 23.0076 52.6085 23.2869 52.6067 23.5676C52.5995 27.4557 52.5963 31.3447 52.5971 35.2344C52.5971 35.3204 52.5971 35.4076 52.5971 35.4935C52.566 35.9043 52.4093 36.2447 52.0407 36.462C51.6506 36.6925 51.2617 36.9265 50.8668 37.1522C49.9654 37.6641 49.0627 38.1744 48.1589 38.6831C48.1378 38.6811 48.1166 38.6864 48.0989 38.6981C48.0813 38.7099 48.0682 38.7273 48.062 38.7476C48.0564 38.7621 48.0463 38.7745 48.0332 38.7828C48.02 38.7912 48.0045 38.7952 47.989 38.7942C47.9518 38.7885 47.9138 38.795 47.8806 38.8126C47.8474 38.8303 47.8208 38.8581 47.8047 38.8921C47.8012 38.9038 47.7936 38.914 47.7833 38.9207C47.773 38.9275 47.7607 38.9305 47.7485 38.9291L47.7078 38.9064Z" fill="black"/>
<path d="M41.5621 17.1123C41.9773 17.3046 42.0946 17.7416 42.28 18.0891C42.5086 18.5274 42.8018 18.925 43.0076 19.3776C43.1272 19.6355 43.2756 19.866 43.2648 20.1633C43.2567 20.2715 43.2787 20.3797 43.3283 20.4762C43.5329 20.8118 43.5221 21.1772 43.5221 21.5509C43.5221 22.9374 43.5221 24.3238 43.5221 25.7114C43.5221 25.9693 43.5556 26.2308 43.4623 26.484C43.438 26.5442 43.4318 26.6101 43.4443 26.6738C43.6011 27.2494 43.4934 27.8369 43.5233 28.4185C43.5413 28.7612 43.4826 29.1099 43.6202 29.4455C43.6478 29.55 43.6478 29.6598 43.6202 29.7643C43.4627 30.6143 43.4655 31.4863 43.6286 32.3353C43.6751 32.5697 43.6694 32.8115 43.6119 33.0434C43.473 33.6322 43.471 34.2449 43.6059 34.8346C43.6786 35.0859 43.6815 35.3521 43.6142 35.6049C43.5381 35.8766 43.5074 36.159 43.5233 36.4408C43.5233 37.6349 43.5353 38.8291 43.5161 40.016C43.4907 40.4276 43.5873 40.8375 43.7937 41.1947C43.088 41.6838 42.3423 42.1128 41.5645 42.4772C41.5369 41.9398 41.6422 41.4024 41.4963 40.8639C41.485 40.7793 41.4928 40.6932 41.519 40.6119C41.6025 40.2529 41.5885 39.8782 41.4783 39.5264C41.4105 39.2964 41.4185 39.0507 41.501 38.8255C41.5987 38.4922 41.6021 38.1384 41.5106 37.8033C41.4173 37.4104 41.391 35.083 41.4951 34.7057C41.5477 34.511 41.5884 34.3283 41.4951 34.1396C41.361 33.8531 41.598 33.6023 41.5716 33.3181C41.5477 33.0613 41.367 32.8249 41.4616 32.5586C41.744 31.7657 41.6937 30.9429 41.6937 30.1249C41.6937 27.7669 41.6937 25.4084 41.6937 23.0496C41.6937 22.7069 41.7475 22.3582 41.6255 22.0202C41.6069 21.9587 41.6069 21.8931 41.6255 21.8316C41.7918 21.2238 41.6901 20.6303 41.5214 20.0463C41.458 19.8302 41.4125 19.6308 41.513 19.4194C41.5225 19.3999 41.5302 19.3795 41.5357 19.3585C41.6375 19.0313 41.4316 18.7148 41.4783 18.4032C41.525 18.0915 41.6207 17.7763 41.4783 17.4562C41.4451 17.3992 41.4353 17.3315 41.4509 17.2674C41.4665 17.2033 41.5063 17.1478 41.5621 17.1123Z" fill="black"/>
<path d="M33.4801 29.0676C33.3402 29.2303 33.2126 29.4031 33.0984 29.5847C32.4152 30.8589 31.6039 32.059 30.9098 33.3248C30.4934 34.0831 30.0267 34.8103 29.6283 35.5769C29.5289 35.7668 29.4009 35.9435 29.2872 36.1262C29.2025 36.0424 29.1358 35.9422 29.0911 35.8317C29.0465 35.7212 29.0248 35.6029 29.0276 35.4838C29.0276 35.3321 29.0276 35.1805 29.0276 35.0288C29.0276 31.2203 29.0276 27.4122 29.0276 23.6044C29.0276 23.4957 29.0276 23.3883 29.0276 23.2796C29.0276 22.8628 29.1748 22.5213 29.5421 22.2944C29.6185 22.2991 29.6923 22.3243 29.7555 22.3674C29.8187 22.4105 29.869 22.4699 29.9011 22.5392C30.1727 23.0049 30.4719 23.4575 30.7172 23.9376C31.1815 24.8427 31.684 25.7288 32.1842 26.6089C32.6306 27.4173 33.047 28.2473 33.4801 29.0676Z" fill="black"/>
<path d="M100.972 29.2728C100.972 29.6179 100.972 29.963 100.972 30.3093C100.98 30.3956 100.963 30.4822 100.922 30.5585C100.881 30.6348 100.818 30.6972 100.741 30.738C100.141 31.0812 99.5431 31.4251 98.9464 31.7698C98.8735 31.8168 98.7886 31.8418 98.7017 31.8418C98.6149 31.8418 98.53 31.8168 98.457 31.7698C97.8767 31.4342 97.2975 31.0999 96.7136 30.7715C96.6174 30.7223 96.5382 30.6455 96.4862 30.551C96.4341 30.4565 96.4116 30.3486 96.4216 30.2413C96.4312 29.6143 96.4336 28.9886 96.4216 28.3629C96.4078 28.2453 96.4311 28.1264 96.4884 28.0227C96.5457 27.9191 96.6341 27.8359 96.7411 27.7849C97.2724 27.4947 97.7965 27.1878 98.3158 26.8809C98.4208 26.8047 98.5463 26.7617 98.6761 26.7576C98.8059 26.7536 98.9339 26.7887 99.0434 26.8583C99.6189 27.1998 100.203 27.527 100.784 27.8589C100.843 27.8889 100.891 27.9345 100.924 27.9907C100.958 28.0469 100.974 28.1114 100.972 28.1766C100.972 28.5432 100.972 28.9098 100.972 29.2776V29.2728Z" fill="black"/>
<path d="M70.1741 49.9989C69.1258 49.9917 68.2451 49.1367 68.2475 48.1098C68.2399 47.8487 68.2859 47.5889 68.3827 47.3464C68.4796 47.1038 68.6253 46.8836 68.8107 46.6994C68.9962 46.5152 69.2176 46.3709 69.4611 46.2754C69.7046 46.1799 69.9652 46.1353 70.2267 46.1442C71.3778 46.1836 72.1413 47.0744 72.1257 48.1312C72.1102 49.1881 71.1613 50.0359 70.1741 49.9989ZM70.2016 49.6406C70.9734 49.7183 71.8098 48.9242 71.7823 48.025C71.763 47.6133 71.5881 47.2242 71.2928 46.9361C70.9974 46.648 70.6037 46.4824 70.1908 46.4726C69.3065 46.4905 68.5407 47.2141 68.5658 48.0715C68.5862 48.8274 69.2299 49.7171 70.204 49.6454L70.2016 49.6406Z" fill="black"/>
<path d="M70.204 49.6448C69.2323 49.7164 68.5886 48.8268 68.5682 48.0721C68.5431 47.2147 69.3089 46.4911 70.1932 46.4731C70.6061 46.483 70.9999 46.6486 71.2952 46.9367C71.5905 47.2248 71.7654 47.6139 71.7847 48.0255C71.8098 48.9247 70.9734 49.7224 70.204 49.6448ZM69.4621 48.0685C69.4621 48.3277 69.4621 48.5868 69.4621 48.8459C69.4621 49.025 69.5435 49.1062 69.6799 49.0991C69.8163 49.0919 69.857 48.9988 69.8654 48.8829C69.8737 48.7671 69.8654 48.6668 69.8761 48.5593C69.8733 48.5269 69.8776 48.4942 69.8885 48.4635C69.8994 48.4328 69.9168 48.4049 69.9395 48.3814C69.9621 48.358 69.9896 48.3397 70.0199 48.3278C70.0503 48.3158 70.0829 48.3105 70.1154 48.3121C70.3189 48.3002 70.4385 48.3587 70.4744 48.5116C70.5103 48.6644 70.5103 48.8113 70.5414 48.9582C70.5524 48.9883 70.5694 49.0159 70.5913 49.0394C70.6133 49.0629 70.6397 49.0817 70.6691 49.0947C70.6984 49.1078 70.7301 49.1148 70.7623 49.1153C70.7944 49.1158 70.8263 49.1099 70.8561 49.0979C70.8981 49.0874 70.9342 49.0609 70.9566 49.024C70.979 48.987 70.9859 48.9428 70.9758 48.9008C70.9614 48.7289 70.9277 48.559 70.8753 48.3945C70.8321 48.2999 70.8123 48.1962 70.8175 48.0924C70.8227 47.9885 70.8528 47.8874 70.9052 47.7975C71.0991 47.4177 70.8681 47.0523 70.4481 47.001C70.3403 46.9918 70.232 46.9886 70.1238 46.9914C69.4693 46.9842 69.4693 46.9842 69.4645 47.61C69.4597 47.7664 69.4597 47.9169 69.4597 48.0685H69.4621Z" fill="white"/>
</svg>
